<svg width="64" height="64" viewBox="0 0 64 64" fill="none" xmlns="http://www.w3.org/2000/svg">
<path d="M50.6667 10.6666H48V5.33331H42.6667V10.6666H21.3333V5.33331H16V10.6666H13.3333C10.4 10.6666 8 13.0666 8 16V53.3333C8 56.2666 10.4 58.6666 13.3333 58.6666H50.6667C53.6 58.6666 56 56.2666 56 53.3333V16C56 13.0666 53.6 10.6666 50.6667 10.6666ZM50.6667 53.3333H13.3333V26.6666H50.6667V53.3333ZM13.3333 21.3333V16H50.6667V21.3333H13.3333ZM28.16 49.2266L43.9733 33.4133L41.1467 30.5866L28.16 43.5733L22.5333 37.9466L19.7067 40.7733L28.16 49.2266Z" fill="#64108C"/>
</svg>
