<svg width="64" height="64" viewBox="0 0 64 64" fill="none" xmlns="http://www.w3.org/2000/svg">
<path d="M58.4746 30.952C57.936 29.6507 56.7813 29.3387 56 29.264V21.3333C56 18.392 53.608 16 50.6666 16H34.6666V12.2933C35.48 11.5627 36 10.512 36 9.33334C36 8.27248 35.5785 7.25506 34.8284 6.50492C34.0783 5.75477 33.0608 5.33334 32 5.33334C30.9391 5.33334 29.9217 5.75477 29.1715 6.50492C28.4214 7.25506 28 8.27248 28 9.33334C28 10.512 28.52 11.5627 29.3333 12.2933V16H13.3333C10.392 16 7.99997 18.392 7.99997 21.3333V29.3253L7.78131 29.3413C7.10923 29.3899 6.48044 29.691 6.02135 30.1842C5.56226 30.6775 5.30691 31.3262 5.30664 32V37.3333C5.30664 38.0406 5.58759 38.7189 6.08769 39.219C6.58779 39.7191 7.26606 40 7.97331 40H7.99997V53.3333C7.99997 56.2747 10.392 58.6667 13.3333 58.6667H50.6666C53.608 58.6667 56 56.2747 56 53.3333V40C56.7072 40 57.3855 39.7191 57.8856 39.219C58.3857 38.7189 58.6666 38.0406 58.6666 37.3333V32.1653C58.6974 31.7515 58.6316 31.3362 58.4746 30.952ZM13.3333 53.3333V21.3333H50.6666L50.6693 31.9893L50.6666 32V37.3333L50.6693 37.3467L50.672 53.3333H13.3333Z" fill="#64108C"/>
<path d="M22.6667 37.3333C24.8758 37.3333 26.6667 34.9455 26.6667 32C26.6667 29.0545 24.8758 26.6667 22.6667 26.6667C20.4575 26.6667 18.6667 29.0545 18.6667 32C18.6667 34.9455 20.4575 37.3333 22.6667 37.3333Z" fill="#64108C"/>
<path d="M41.3333 37.3333C43.5425 37.3333 45.3333 34.9455 45.3333 32C45.3333 29.0545 43.5425 26.6667 41.3333 26.6667C39.1242 26.6667 37.3333 29.0545 37.3333 32C37.3333 34.9455 39.1242 37.3333 41.3333 37.3333Z" fill="#64108C"/>
<path d="M21.3333 42.6667H42.6667V48H21.3333V42.6667Z" fill="#64108C"/>
</svg>
