<svg width="601" height="596" viewBox="0 0 601 596" fill="none" xmlns="http://www.w3.org/2000/svg">
<path opacity="0.3" d="M513.207 416.834C513.352 416.575 513.496 416.316 513.64 416.057C513.821 415.73 514.002 415.403 514.182 415.076L512.43 414.112C512.109 414.694 511.786 415.277 511.461 415.858C511.136 416.44 510.809 417.02 510.481 417.599L512.22 418.586C512.551 418.004 512.88 417.42 513.207 416.834ZM517.954 408.009C519.801 404.439 521.57 400.85 523.262 397.243L521.451 396.393C519.771 399.977 518.013 403.543 516.178 407.09L517.954 408.009ZM529.675 382.583C530.177 381.348 530.671 380.112 531.155 378.874L529.293 378.145C528.811 379.375 528.321 380.603 527.823 381.829L529.675 382.583ZM533.976 371.377C535.34 367.601 536.624 363.813 537.828 360.013L535.922 359.409C534.725 363.183 533.45 366.947 532.095 370.698L533.976 371.377ZM542.257 344.632C542.592 343.339 542.918 342.046 543.235 340.752L541.292 340.276C540.977 341.562 540.653 342.846 540.321 344.13L542.257 344.632ZM545.034 332.957C545.884 329.037 546.653 325.111 547.34 321.182L545.37 320.837C544.687 324.74 543.924 328.639 543.08 332.534L545.034 332.957ZM549.672 305.343C549.831 304.017 549.981 302.69 550.121 301.364L548.132 301.153C547.993 302.471 547.844 303.788 547.686 305.106L549.672 305.343ZM550.857 293.401C551.171 289.403 551.403 285.408 551.554 281.419L549.555 281.343C549.406 285.305 549.175 289.273 548.863 293.245L550.857 293.401ZM551.72 265.411C551.697 264.075 551.665 262.74 551.624 261.406L549.625 261.468C549.666 262.793 549.697 264.118 549.72 265.445L551.72 265.411ZM551.268 253.418C551.035 249.414 550.719 245.423 550.321 241.447L548.331 241.646C548.726 245.595 549.04 249.558 549.272 253.534L551.268 253.418ZM548.287 225.572C548.08 224.252 547.864 222.934 547.639 221.618L545.668 221.955C545.891 223.262 546.106 224.57 546.311 225.881L548.287 225.572ZM546.181 213.752C545.395 209.822 544.528 205.913 543.579 202.03L541.636 202.504C542.578 206.36 543.44 210.241 544.22 214.144L546.181 213.752ZM539.341 186.595C538.95 185.318 538.551 184.044 538.143 182.773L536.239 183.385C536.644 184.646 537.04 185.911 537.428 187.179L539.341 186.595ZM535.586 175.19C534.252 171.412 532.837 167.667 531.343 163.957L529.488 164.704C530.971 168.387 532.376 172.106 533.701 175.856L535.586 175.19ZM524.93 149.289C524.36 148.082 523.781 146.879 523.193 145.681L521.398 146.562C521.981 147.752 522.556 148.945 523.122 150.143L524.93 149.289ZM519.561 138.548C517.692 135.007 515.745 131.509 513.719 128.056L511.994 129.068C514.004 132.495 515.937 135.967 517.792 139.481L519.561 138.548ZM505.208 114.495C504.466 113.387 503.714 112.285 502.955 111.188L501.311 112.327C502.065 113.415 502.81 114.509 503.547 115.608L505.208 114.495ZM498.295 104.675C495.919 101.458 493.468 98.2926 490.941 95.1816L489.389 96.4424C491.896 99.5295 494.329 102.671 496.687 105.863L498.295 104.675ZM480.468 83.0667C479.566 82.0866 478.656 81.1128 477.738 80.1454L476.288 81.5221C477.198 82.4819 478.101 83.4482 478.996 84.4208L480.468 83.0667ZM472.135 74.4202C469.298 71.6101 466.389 68.8596 463.41 66.1717L462.07 67.6567C465.026 70.3237 467.912 73.0528 470.727 75.8412L472.135 74.4202ZM446.036 52.3605C446.645 52.7704 447.252 53.1827 447.856 53.5972L446.822 54.94C447.87 55.747 448.91 56.5613 449.943 57.3827L451.135 55.8837C451.728 56.3038 452.318 56.7261 452.906 57.1506L453.727 56.0128C454.407 56.3494 455.086 56.6893 455.764 57.0325L455.545 57.3675C457.149 58.4158 458.738 59.4798 460.312 60.5593L459.278 61.902C460.326 62.7091 461.367 63.5234 462.4 64.3447L463.592 62.8458C464.184 63.2659 464.774 63.6882 465.363 64.1127L466.371 62.7158C466.544 62.8141 466.718 62.9125 466.891 63.0112L467.386 62.142C467.883 62.4249 468.379 62.7092 468.873 62.995L468.001 64.3296C469.606 65.3779 471.195 66.4419 472.769 67.5213L471.735 68.8641C472.783 69.6711 473.823 70.4854 474.856 71.3068L476.048 69.8078C476.641 70.2279 477.231 70.6502 477.819 71.0747L478.99 69.453C477.742 68.5524 476.484 67.6615 475.216 66.7807C477.167 67.9828 479.096 69.2076 481.005 70.4545L480.458 71.2916C482.062 72.3399 483.651 73.4039 485.225 74.4834L484.191 75.8262C485.239 76.6332 486.28 77.4475 487.312 78.2688L488.504 76.7699C489.097 77.19 489.687 77.6123 490.275 78.0368L490.861 77.2259C493.023 78.7865 495.155 80.3768 497.258 81.9959L496.647 82.7882C497.695 83.5953 498.736 84.4095 499.769 85.2309L500.391 84.4482C504.572 87.7725 508.631 91.2127 512.565 94.7625L511.895 95.5049C514.852 98.172 517.738 100.901 520.553 103.689L521.257 102.979C523.149 104.854 525.01 106.755 526.839 108.682L526.113 109.37C527.024 110.33 527.927 111.296 528.821 112.269L529.557 111.592C533.166 115.514 536.644 119.539 539.991 123.66L539.214 124.291C541.721 127.378 544.154 130.519 546.512 133.711L547.317 133.117C548.897 135.257 550.445 137.42 551.958 139.605L551.136 140.175C551.89 141.263 552.636 142.357 553.373 143.456L554.203 142.9C557.166 147.319 559.993 151.825 562.682 156.41L561.82 156.916C563.83 160.343 565.763 163.816 567.618 167.329L568.502 166.863C569.743 169.213 570.95 171.583 572.121 173.97L571.223 174.411C571.807 175.6 572.382 176.793 572.948 177.991L573.852 177.564C576.122 182.369 578.252 187.242 580.241 192.178L579.313 192.552C580.797 196.236 582.202 199.954 583.526 203.704L584.469 203.371C585.354 205.876 586.203 208.395 587.016 210.927L586.064 211.233C586.47 212.495 586.866 213.759 587.253 215.028L588.21 214.735C589.761 219.813 591.169 224.942 592.433 230.115L591.462 230.353C592.404 234.209 593.265 238.09 594.046 241.992L595.026 241.796C595.547 244.4 596.031 247.013 596.479 249.635L595.494 249.803C595.717 251.11 595.931 252.418 596.136 253.729L597.124 253.575C597.945 258.816 598.621 264.092 599.152 269.395L598.157 269.495C598.552 273.443 598.865 277.407 599.097 281.383L600.096 281.324C600.25 283.973 600.368 286.627 600.45 289.285L599.451 289.316C599.491 290.641 599.523 291.967 599.546 293.294L600.545 293.277C600.636 298.579 600.581 303.899 600.38 309.229L599.381 309.191C599.231 313.154 599.001 317.122 598.688 321.093L599.685 321.171C599.477 323.815 599.233 326.461 598.952 329.107L597.958 329.001C597.818 330.319 597.67 331.636 597.512 332.954L598.505 333.073C597.875 338.335 597.1 343.599 596.18 348.858L595.195 348.685C594.513 352.588 593.749 356.487 592.905 360.382L593.882 360.594C593.32 363.186 592.723 365.776 592.089 368.362L591.118 368.124C590.803 369.41 590.479 370.694 590.146 371.978L591.114 372.229C589.785 377.354 588.315 382.466 586.7 387.559L585.747 387.257C584.551 391.031 583.276 394.795 581.92 398.546L582.861 398.886C581.959 401.382 581.022 403.873 580.049 406.358L579.118 405.993C578.637 407.223 578.147 408.451 577.648 409.677L578.575 410.054C576.583 414.953 574.452 419.825 572.182 424.666L571.277 424.242C569.596 427.825 567.839 431.392 566.004 434.938L566.892 435.398C565.672 437.755 564.419 440.103 563.132 442.442L562.256 441.96C561.935 442.543 561.612 443.125 561.287 443.707C560.961 444.288 560.635 444.869 560.306 445.447L561.176 445.941C558.535 450.595 555.79 455.152 552.947 459.61L552.104 459.072C549.959 462.435 547.758 465.741 545.502 468.99L546.324 469.56C544.8 471.754 543.253 473.922 541.681 476.064L540.875 475.472C540.091 476.54 539.302 477.6 538.507 478.655L539.305 479.257C536.088 483.522 532.775 487.68 529.371 491.729L528.605 491.085C526.037 494.14 523.417 497.133 520.747 500.063L521.486 500.736C519.69 502.707 517.873 504.649 516.033 506.563L515.312 505.87C514.393 506.826 513.469 507.775 512.539 508.716L513.25 509.419C509.5 513.217 505.663 516.899 501.746 520.462L501.073 519.723C498.124 522.405 495.129 525.02 492.091 527.567L492.733 528.334C490.693 530.044 488.633 531.724 486.554 533.373L485.932 532.59C484.893 533.415 483.849 534.232 482.8 535.041L483.41 535.832C479.187 539.091 474.889 542.223 470.523 545.228L469.956 544.405C466.674 546.663 463.354 548.849 459.997 550.962L460.53 551.808C458.278 553.226 456.01 554.611 453.727 555.962L453.217 555.102C452.075 555.778 450.929 556.445 449.78 557.105L450.277 557.972C445.653 560.624 440.967 563.142 436.228 565.524L435.779 564.63C432.221 566.418 428.633 568.128 425.017 569.76L425.428 570.672C423.004 571.766 420.567 572.826 418.118 573.85L417.732 572.927C416.508 573.439 415.281 573.942 414.051 574.437L414.424 575.365C409.481 577.352 404.492 579.196 399.463 580.896L399.143 579.948C395.374 581.223 391.582 582.415 387.771 583.525L388.051 584.486C385.498 585.229 382.936 585.937 380.366 586.606L380.113 585.639C378.83 585.973 377.545 586.298 376.258 586.614L376.497 587.585C371.326 588.854 366.126 589.973 360.903 590.94L360.721 589.957C356.811 590.68 352.889 591.319 348.956 591.87L349.095 592.86C346.462 593.23 343.824 593.561 341.182 593.853L341.072 592.859C339.755 593.004 338.438 593.14 337.119 593.266L337.214 594.261C331.92 594.768 326.612 595.117 321.299 595.309L321.263 594.309C317.293 594.452 313.319 594.506 309.346 594.471L309.337 595.471C306.678 595.447 304.02 595.383 301.362 595.279L301.401 594.28C300.078 594.228 298.756 594.166 297.434 594.094L297.38 595.093C292.076 594.805 286.776 594.355 281.488 593.743L281.603 592.75C277.662 592.293 273.726 591.746 269.8 591.107L269.639 592.094C267.016 591.667 264.397 591.199 261.782 590.69L261.973 589.709C260.676 589.456 259.38 589.194 258.085 588.921L257.879 589.899C252.691 588.806 247.524 587.55 242.384 586.128L242.65 585.165C238.831 584.109 235.028 582.962 231.242 581.722L230.931 582.672C228.406 581.846 225.889 580.978 223.381 580.07L223.722 579.129C222.481 578.68 221.242 578.22 220.006 577.751L219.651 578.685C214.705 576.807 209.795 574.766 204.927 572.563L205.34 571.652C201.736 570.02 198.154 568.299 194.599 566.487L194.144 567.378C193.474 567.036 192.804 566.691 192.135 566.343L192.883 564.69C189.279 563.058 185.698 561.337 182.142 559.525L181.617 560.555C180.964 560.176 180.314 559.794 179.665 559.41L180.427 557.728C177.03 556.19 173.654 554.573 170.3 552.874L170.519 552.539C169.655 551.975 168.795 551.406 167.94 550.832L167.97 550.766C167.837 550.705 167.704 550.645 167.571 550.584C165.249 549.021 162.959 547.424 160.701 545.794L159.88 546.932C159.2 546.595 158.521 546.256 157.843 545.912L158.062 545.577C157.198 545.013 156.339 544.444 155.484 543.87L155.514 543.804C155.381 543.743 155.248 543.683 155.115 543.622C154.506 543.212 153.899 542.8 153.295 542.386L154.329 541.043C153.281 540.236 152.24 539.422 151.207 538.6L150.016 540.099C149.423 539.679 148.833 539.257 148.245 538.832L147.423 539.97C146.744 539.633 146.065 539.294 145.387 538.95L145.606 538.615C144.002 537.567 142.412 536.503 140.838 535.424L141.872 534.081C140.825 533.274 139.784 532.459 138.751 531.638L137.559 533.137C136.967 532.717 136.376 532.295 135.788 531.87L134.78 533.267C134.606 533.169 134.433 533.07 134.259 532.972L133.765 533.841C133.268 533.558 132.772 533.274 132.277 532.988L133.149 531.653C131.545 530.605 129.956 529.541 128.382 528.462L129.416 527.119C128.368 526.312 127.328 525.497 126.295 524.676L125.103 526.175C124.51 525.755 123.92 525.333 123.332 524.908L122.161 526.53C123.409 527.43 124.667 528.321 125.934 529.202C123.984 528 122.054 526.775 120.146 525.528L120.693 524.691C119.089 523.643 117.5 522.579 115.926 521.499L116.96 520.157C115.912 519.35 114.871 518.535 113.838 517.714L112.646 519.213C112.054 518.793 111.464 518.371 110.875 517.946L110.29 518.757C108.128 517.196 105.996 515.606 103.893 513.987L104.503 513.195C103.455 512.388 102.415 511.573 101.382 510.752L100.76 511.535C96.5787 508.21 92.5202 504.77 88.5855 501.22L89.2554 500.478C86.2991 497.811 83.413 495.082 80.5979 492.293L79.8942 493.004C78.0015 491.129 76.1408 489.228 74.3122 487.301L75.0376 486.613C74.1268 485.653 73.2241 484.686 72.3293 483.714L71.5934 484.391C67.985 480.468 64.5067 476.443 61.1601 472.323L61.9364 471.692C59.4293 468.605 56.9965 465.464 54.6386 462.272L53.8342 462.866C52.2534 460.726 50.706 458.563 49.1925 456.377L50.0146 455.808C49.2607 454.72 48.5153 453.626 47.7782 452.526L46.9476 453.083C43.9847 448.664 41.1577 444.158 38.4684 439.573L39.331 439.067C37.3208 435.639 35.3878 432.167 33.5327 428.653L32.6484 429.12C31.4074 426.769 30.2011 424.4 29.0297 422.013L29.9275 421.572C29.344 420.383 28.7692 419.189 28.2032 417.991L27.299 418.419C25.0287 413.614 22.8985 408.74 20.9101 403.804L21.8377 403.431C20.3538 399.747 18.9492 396.029 17.6246 392.279L16.6817 392.612C15.7969 390.107 14.9477 387.588 14.1343 385.056L15.0864 384.75C14.6811 383.488 14.2848 382.223 13.8974 380.955L12.941 381.247C11.3899 376.17 9.98149 371.041 8.7176 365.868L9.68904 365.63C8.74695 361.774 7.88544 357.893 7.10517 353.99L6.12457 354.186C5.60412 351.583 5.1197 348.97 4.67152 346.348L5.65723 346.179C5.43393 344.873 5.21966 343.564 5.01444 342.254L4.02647 342.408C3.20576 337.166 2.52935 331.891 1.99893 326.588L2.99397 326.488C2.59903 322.54 2.28528 318.576 2.05346 314.6L1.05515 314.659C0.900719 312.01 0.782509 309.356 0.700726 306.697L1.70025 306.667C1.6595 305.342 1.62782 304.016 1.60524 302.689L0.605394 302.706C0.515172 297.403 0.569753 292.084 0.770753 286.754L1.77005 286.791C1.91946 282.829 2.15006 278.861 2.46251 274.89L1.46559 274.812C1.67362 272.168 1.9178 269.522 2.19834 266.876L3.19277 266.981C3.33244 265.664 3.48115 264.347 3.63893 263.029L2.64602 262.91C3.27618 257.647 4.05047 252.384 4.97042 247.125L5.95547 247.297C6.63816 243.395 7.40134 239.495 8.24563 235.601L7.26835 235.389C7.83031 232.797 8.42809 230.207 9.06187 227.621L10.0331 227.858C10.3481 226.573 10.6719 225.289 11.0047 224.005L10.0367 223.754C11.3654 218.628 12.8361 213.516 14.4503 208.424L15.4036 208.726C16.5999 204.952 17.8753 201.188 19.2303 197.437L18.2898 197.097C19.1917 194.601 20.1289 192.11 21.1014 189.625L22.0326 189.99C22.5138 188.76 23.0038 187.532 23.5025 186.305L22.5762 185.929C24.5681 181.03 26.6985 176.158 28.9687 171.317L29.8741 171.741C31.5547 168.158 33.3122 164.591 35.1472 161.044L34.259 160.585C35.4783 158.228 36.7316 155.88 38.0192 153.541L38.8952 154.023C39.2161 153.44 39.5391 152.858 39.8642 152.276C40.1894 151.694 40.5161 151.114 40.8445 150.536L39.9747 150.042C42.6158 145.387 45.3603 140.831 48.2036 136.373L49.0467 136.911C51.1917 133.548 53.3931 130.242 55.6486 126.993L54.8271 126.423C56.3504 124.229 57.8982 122.061 59.47 119.919L60.2762 120.511C61.0595 119.443 61.8488 118.382 62.644 117.328L61.8456 116.726C65.0628 112.461 68.3761 108.303 71.78 104.254L72.5454 104.898C75.1139 101.843 77.7341 98.8499 80.4038 95.9201L79.6647 95.2465C81.4603 93.276 83.2782 91.3338 85.1177 89.4203L85.8386 90.1133C86.7577 89.1572 87.6822 88.2083 88.612 87.2666L87.9004 86.564C91.6509 82.7655 95.4877 79.0838 99.405 75.5205L100.078 76.2603C103.027 73.5776 106.022 70.9624 109.06 68.4154L108.418 67.6491C110.458 65.9385 112.518 64.2586 114.597 62.6096L115.218 63.393C116.258 62.5683 117.302 61.7513 118.351 60.9421L117.74 60.1504C121.964 56.892 126.262 53.7594 130.628 50.7545L131.195 51.5783C134.477 49.3198 137.797 47.1337 141.153 45.0209L140.621 44.1746C142.873 42.757 145.141 41.3723 147.424 40.0206L147.934 40.8812C149.076 40.2052 150.221 39.5375 151.371 38.8781L150.874 38.0107C155.498 35.3584 160.183 32.8406 164.923 30.4591L165.372 31.3527C168.93 29.5652 172.518 27.8549 176.134 26.2226L175.722 25.3112C178.147 24.2167 180.584 23.1572 183.033 22.1329L183.419 23.0555C184.643 22.5435 185.87 22.0404 187.099 21.5461L186.727 20.6182C191.67 18.6312 196.659 16.7868 201.688 15.087L202.008 16.0344C205.777 14.7601 209.569 13.5675 213.379 12.4573L213.1 11.4973C215.653 10.7534 218.215 10.0463 220.785 9.37646L221.037 10.3441C222.32 10.0097 223.605 9.6845 224.892 9.36867L224.654 8.39748C229.825 7.12852 235.025 6.00959 240.248 5.04281L240.43 6.0261C244.34 5.30242 248.262 4.66431 252.195 4.11267L252.056 3.12237C254.689 2.75297 257.327 2.4222 259.969 2.13033L260.078 3.12428C261.395 2.97876 262.713 2.84295 264.032 2.71688L263.937 1.72142C269.231 1.21519 274.539 0.865361 279.852 0.674068L279.888 1.67342C283.858 1.5305 287.831 1.4764 291.805 1.51203L291.814 0.512073C294.472 0.535912 297.131 0.599754 299.789 0.703872L299.75 1.7031C301.072 1.7549 302.395 1.81672 303.717 1.88857L303.771 0.890041C309.075 1.17828 314.374 1.6275 319.663 2.23982L319.548 3.23319C323.489 3.68952 327.424 4.23679 331.351 4.87586L331.511 3.88885C334.135 4.31584 336.754 4.78366 339.368 5.29257L339.177 6.27415C340.475 6.52665 341.771 6.78931 343.065 7.06215L343.271 6.08364C348.459 7.17693 353.627 8.43316 358.767 9.85439L358.501 10.8182C362.319 11.874 366.123 13.0213 369.909 14.2607L370.22 13.3104C372.745 14.137 375.261 15.0045 377.77 15.9132L377.429 16.8534C378.67 17.3029 379.909 17.7625 381.145 18.2322L381.5 17.2974C386.446 19.1762 391.355 21.2164 396.224 23.4201L395.811 24.3311C399.415 25.9626 402.996 27.684 406.552 29.4962L407.006 28.6052C407.677 28.947 408.347 29.2921 409.016 29.6403L408.268 31.2932C411.872 32.9246 415.453 34.646 419.009 36.4582L419.534 35.4281C420.186 35.8071 420.837 36.1887 421.485 36.5728L420.724 38.2552C424.121 39.7928 427.497 41.4103 430.851 43.1084L430.632 43.4434C431.496 44.0079 432.355 44.5769 433.211 45.1505L433.18 45.2173C433.313 45.2775 433.446 45.3379 433.58 45.3984C435.902 46.962 438.192 48.559 440.45 50.1885L441.271 49.0507C441.951 49.3874 442.63 49.7273 443.307 50.0705L443.089 50.4055C443.952 50.9699 444.812 51.539 445.667 52.1125L445.637 52.1793C445.77 52.2396 445.903 52.3 446.036 52.3605ZM463.721 60.4898C462.861 59.8861 461.996 59.2871 461.127 58.6928C462.049 59.1846 462.969 59.6826 463.887 60.1867L463.721 60.4898ZM137.43 535.493C138.29 536.097 139.155 536.696 140.024 537.29C139.102 536.798 138.182 536.3 137.263 535.796L137.43 535.493ZM169.47 551.772C170.716 552.245 171.964 552.709 173.215 553.162L173.896 551.281C172.655 550.832 171.417 550.372 170.18 549.902L169.47 551.772ZM180.794 555.775C184.61 557.024 188.443 558.18 192.292 559.244L192.825 557.316C189.006 556.261 185.202 555.113 181.417 553.874L180.794 555.775ZM207.848 563.03C209.152 563.304 210.458 563.569 211.766 563.824L212.148 561.86C210.851 561.608 209.555 561.345 208.26 561.073L207.848 563.03ZM219.653 565.233C223.61 565.877 227.576 566.428 231.547 566.888L231.777 564.901C227.836 564.445 223.901 563.898 219.975 563.259L219.653 565.233ZM247.5 568.243C248.832 568.316 250.164 568.378 251.497 568.43L251.575 566.432C250.253 566.38 248.931 566.318 247.608 566.246L247.5 568.243ZM259.502 568.623C263.506 568.658 267.509 568.604 271.509 568.46L271.437 566.461C267.467 566.604 263.494 566.658 259.52 566.623L259.502 568.623ZM287.484 567.409C288.812 567.282 290.14 567.145 291.466 566.998L291.247 565.01C289.93 565.156 288.612 565.292 287.293 565.418L287.484 567.409ZM299.408 566.003C303.37 565.447 307.321 564.804 311.259 564.075L310.895 562.109C306.986 562.832 303.063 563.47 299.13 564.022L299.408 566.003ZM326.91 560.708C328.206 560.39 329.5 560.063 330.792 559.726L330.288 557.791C329.005 558.125 327.72 558.45 326.433 558.766L326.91 560.708ZM338.505 557.597C342.343 556.479 346.162 555.278 349.958 553.995L349.317 552.1C345.548 553.374 341.757 554.567 337.946 555.677L338.505 557.597ZM364.972 548.444C366.21 547.946 367.446 547.44 368.678 546.924L367.906 545.079C366.682 545.591 365.455 546.094 364.226 546.589L364.972 548.444ZM376.014 543.735C379.656 542.091 383.269 540.369 386.851 538.569L385.953 536.782C382.396 538.569 378.808 540.28 375.191 541.912L376.014 543.735ZM400.949 530.991C402.107 530.327 403.261 529.655 404.41 528.975L403.392 527.253C402.25 527.929 401.104 528.597 399.954 529.256L400.949 530.991ZM411.237 524.806C414.617 522.679 417.96 520.478 421.264 518.204L420.13 516.556C416.849 518.815 413.528 521.001 410.172 523.114L411.237 524.806ZM434.196 508.776C435.252 507.961 436.303 507.139 437.35 506.308L436.107 504.742C435.067 505.566 434.023 506.383 432.974 507.192L434.196 508.776ZM443.55 501.252C446.609 498.688 449.624 496.055 452.593 493.354L451.247 491.874C448.298 494.557 445.303 497.172 442.265 499.719L443.55 501.252ZM464.136 482.273C465.072 481.325 466.003 480.37 466.928 479.407L465.487 478.021C464.568 478.977 463.643 479.926 462.713 480.868L464.136 482.273ZM472.4 473.562C475.087 470.612 477.725 467.599 480.311 464.524L478.78 463.237C476.211 466.292 473.591 469.285 470.921 472.215L472.4 473.562ZM490.278 452.011C491.078 450.95 491.873 449.882 492.661 448.807L491.049 447.624C490.266 448.691 489.476 449.752 488.681 450.806L490.278 452.011ZM497.32 442.282C499.59 439.012 501.806 435.684 503.965 432.299L502.279 431.224C500.134 434.587 497.932 437.893 495.677 441.142L497.32 442.282ZM525.663 423.796C525.99 423.211 526.316 422.625 526.638 422.038L524.886 421.074C524.741 421.337 524.596 421.6 524.45 421.864C524.273 422.183 524.096 422.502 523.917 422.821C523.592 423.402 523.266 423.982 522.937 424.561L524.677 425.548C525.007 424.966 525.336 424.382 525.663 423.796ZM530.411 414.971C532.258 411.401 534.027 407.812 535.718 404.205L533.908 403.355C532.227 406.939 530.469 410.505 528.634 414.052L530.411 414.971ZM542.132 389.545C542.634 388.31 543.127 387.074 543.611 385.836L541.749 385.107C541.268 386.337 540.778 387.565 540.279 388.791L542.132 389.545ZM546.432 378.339C547.796 374.563 549.08 370.775 550.285 366.975L548.378 366.371C547.182 370.145 545.906 373.909 544.551 377.66L546.432 378.339ZM554.713 351.594C555.048 350.301 555.374 349.008 555.691 347.714L553.748 347.238C553.434 348.524 553.11 349.808 552.777 351.092L554.713 351.594ZM557.491 339.919C558.341 335.999 559.109 332.073 559.796 328.144L557.826 327.799C557.143 331.702 556.38 335.601 555.536 339.496L557.491 339.919ZM562.128 312.306C562.287 310.979 562.437 309.652 562.578 308.326L560.589 308.115C560.449 309.433 560.3 310.75 560.143 312.068L562.128 312.306ZM563.313 300.363C563.628 296.365 563.86 292.37 564.01 288.381L562.012 288.305C561.862 292.267 561.632 296.235 561.319 300.207L563.313 300.363ZM564.176 272.373C564.153 271.037 564.121 269.702 564.08 268.369L562.081 268.43C562.122 269.755 562.154 271.081 562.176 272.407L564.176 272.373ZM563.725 260.38C563.491 256.376 563.175 252.385 562.778 248.409L560.788 248.608C561.183 252.557 561.496 256.52 561.728 260.496L563.725 260.38ZM560.743 232.534C560.536 231.214 560.321 229.896 560.096 228.58L558.124 228.917C558.348 230.224 558.562 231.532 558.767 232.843L560.743 232.534ZM558.638 220.714C557.852 216.784 556.984 212.875 556.035 208.992L554.093 209.466C555.035 213.322 555.896 217.203 556.676 221.106L558.638 220.714ZM551.797 193.557C551.407 192.28 551.008 191.006 550.599 189.735L548.695 190.347C549.1 191.608 549.497 192.873 549.884 194.141L551.797 193.557ZM548.043 182.152C546.709 178.374 545.294 174.629 543.799 170.919L541.944 171.666C543.428 175.349 544.832 179.068 546.157 182.818L548.043 182.152ZM537.387 156.251C536.817 155.044 536.237 153.842 535.65 152.644L533.854 153.524C534.438 154.714 535.012 155.907 535.578 157.105L537.387 156.251ZM532.018 145.51C530.149 141.969 528.201 138.471 526.176 135.018L524.451 136.03C526.461 139.457 528.394 142.929 530.249 146.443L532.018 145.51ZM517.665 121.457C516.922 120.349 516.171 119.247 515.411 118.15L513.767 119.289C514.521 120.377 515.266 121.471 516.003 122.57L517.665 121.457ZM510.752 111.637C508.376 108.42 505.924 105.255 503.398 102.144L501.845 103.404C504.352 106.492 506.785 109.633 509.143 112.825L510.752 111.637ZM492.924 90.0288C492.023 89.0486 491.113 88.0748 490.195 87.1075L488.744 88.4841C489.655 89.444 490.558 90.4102 491.452 91.3828L492.924 90.0288ZM484.591 81.3822C481.754 78.5721 478.845 75.8217 475.866 73.1338L474.526 74.6188C477.482 77.2858 480.369 80.0149 483.184 82.8032L484.591 81.3822ZM394.312 23.3247C393.066 22.8512 391.817 22.388 390.567 21.935L389.885 23.8154C391.126 24.2649 392.365 24.7245 393.601 25.1943L394.312 23.3247ZM382.987 19.3221C379.172 18.0729 375.339 16.9167 371.49 15.8526L370.957 17.7803C374.776 18.8361 378.579 19.9833 382.365 21.2228L382.987 19.3221ZM355.934 12.0672C354.629 11.7922 353.323 11.5275 352.016 11.273L351.634 13.2362C352.931 13.4887 354.227 13.7514 355.522 14.0242L355.934 12.0672ZM344.128 9.86389C340.172 9.21986 336.206 8.66836 332.234 8.20852L332.004 10.1952C335.946 10.6516 339.881 11.1988 343.807 11.8379L344.128 9.86389ZM316.282 6.85357C314.95 6.78117 313.617 6.71889 312.285 6.66669L312.206 8.66516C313.529 8.71696 314.851 8.77877 316.173 8.85062L316.282 6.85357ZM304.279 6.47416C300.276 6.43827 296.272 6.49277 292.273 6.63677L292.345 8.63547C296.314 8.49255 300.288 8.43846 304.261 8.47409L304.279 6.47416ZM276.298 7.68801C274.969 7.81502 273.642 7.95184 272.315 8.09843L272.535 10.0863C273.852 9.94082 275.17 9.80501 276.488 9.67893L276.298 7.68801ZM264.373 9.09412C260.412 9.64982 256.461 10.2926 252.522 11.0216L252.886 12.9882C256.796 12.2645 260.719 11.6264 264.651 11.0747L264.373 9.09412ZM236.872 14.3884C235.576 14.7065 234.282 15.034 232.989 15.3708L233.494 17.3062C234.777 16.9717 236.062 16.6466 237.349 16.3307L236.872 14.3884ZM225.276 17.4992C221.438 18.6173 217.62 19.8185 213.824 21.1017L214.464 22.9964C218.234 21.7222 222.025 20.5296 225.836 19.4194L225.276 17.4992ZM198.81 26.6524C197.572 27.1502 196.336 27.6569 195.103 28.1724L195.875 30.0175C197.099 29.5056 198.326 29.0024 199.556 28.5081L198.81 26.6524ZM187.767 31.3618C184.126 33.0055 180.513 34.7278 176.931 36.5276L177.828 38.3147C181.386 36.5273 184.974 34.817 188.59 33.1847L187.767 31.3618ZM162.832 44.1053C161.675 44.7692 160.521 45.4415 159.371 46.1221L160.39 47.8432C161.532 47.1672 162.678 46.4996 163.827 45.8402L162.832 44.1053ZM152.544 50.2904C149.165 52.4178 145.822 54.6188 142.518 56.8928L143.651 58.5403C146.933 56.2819 150.253 54.0958 153.61 51.983L152.544 50.2904ZM129.586 66.3206C128.53 67.1354 127.478 67.9579 126.432 68.7883L127.675 70.3551C128.714 69.5304 129.759 68.7134 130.808 67.9042L129.586 66.3206ZM120.232 73.8448C117.173 76.4091 114.158 79.042 111.188 81.7429L112.534 83.2223C115.483 80.5397 118.478 77.9245 121.517 75.3775L120.232 73.8448ZM99.6452 92.8235C98.7091 93.7715 97.7784 94.7268 96.8532 95.6893L98.295 97.0753C99.2141 96.1193 100.139 95.1704 101.068 94.2287L99.6452 92.8235ZM91.3819 101.535C88.6943 104.484 86.0565 107.497 83.4709 110.573L85.0018 111.86C87.5703 108.805 90.1905 105.812 92.8602 102.882L91.3819 101.535ZM73.5037 123.086C72.7032 124.147 71.9087 125.215 71.1202 126.289L72.7326 127.473C73.5159 126.405 74.3052 125.345 75.1004 124.29L73.5037 123.086ZM66.4621 132.814C64.1917 136.085 61.976 139.413 59.8169 142.797L61.5031 143.873C63.6481 140.51 65.8495 137.204 68.1049 133.955L66.4621 132.814ZM51.5614 156.511C51.2309 157.093 50.902 157.677 50.5748 158.262C50.2476 158.848 49.9225 159.434 49.5996 160.021L51.3516 160.985C51.6725 160.402 51.9955 159.82 52.3206 159.238C52.6457 158.656 52.9725 158.076 53.3009 157.498L51.5614 156.511ZM45.8272 167.087C43.9803 170.657 42.2113 174.247 40.5197 177.854L42.3304 178.703C44.0111 175.12 45.7686 171.553 47.6036 168.006L45.8272 167.087ZM34.1062 192.514C33.6042 193.749 33.111 194.985 32.6265 196.223L34.4889 196.952C34.9702 195.722 35.4602 194.494 35.9589 193.267L34.1062 192.514ZM29.8057 203.719C28.4416 207.495 27.1577 211.284 25.9534 215.084L27.8599 215.688C29.0563 211.914 30.3316 208.15 31.6867 204.399L29.8057 203.719ZM21.5251 230.465C21.1901 231.757 20.864 233.051 20.547 234.345L22.4895 234.821C22.8045 233.535 23.1283 232.251 23.4611 230.967L21.5251 230.465ZM18.7474 242.139C17.8974 246.06 17.1291 249.986 16.4418 253.915L18.4119 254.26C19.0945 250.357 19.8577 246.457 20.702 242.563L18.7474 242.139ZM14.1095 269.753C13.9506 271.08 13.8009 272.406 13.6603 273.733L15.6492 273.944C15.7888 272.626 15.9375 271.309 16.0953 269.991L14.1095 269.753ZM12.925 281.695C12.6105 285.694 12.3783 289.689 12.2278 293.678L14.2264 293.754C14.3758 289.791 14.6064 285.823 14.9189 281.852L12.925 281.695ZM12.0619 309.685C12.0847 311.021 12.1166 312.356 12.1576 313.69L14.1566 313.629C14.1159 312.304 14.0842 310.978 14.0616 309.651L12.0619 309.685ZM12.5132 321.679C12.7467 325.682 13.0626 329.673 13.4603 333.649L15.4504 333.45C15.0554 329.502 14.7417 325.538 14.5098 321.562L12.5132 321.679ZM15.4949 349.525C15.7015 350.845 15.9173 352.163 16.1422 353.478L18.1136 353.141C17.8903 351.835 17.676 350.526 17.4708 349.216L15.4949 349.525ZM17.6004 361.344C18.3862 365.275 19.2538 369.184 20.2026 373.067L22.1454 372.592C21.2033 368.736 20.3418 364.855 19.5616 360.952L17.6004 361.344ZM24.441 388.502C24.8312 389.779 25.2304 391.053 25.6386 392.324L27.5428 391.712C27.1375 390.45 26.7412 389.185 26.3538 387.917L24.441 388.502ZM28.1951 399.907C29.5294 403.684 30.9442 407.43 32.439 411.14L34.2941 410.393C32.8102 406.709 31.4056 402.991 30.081 399.241L28.1951 399.907ZM38.8513 425.808C39.4215 427.015 40.0005 428.217 40.5884 429.415L42.3839 428.534C41.8004 427.345 41.2256 426.151 40.6595 424.953L38.8513 425.808ZM44.2205 436.549C46.0894 440.089 48.0369 443.588 50.0622 447.041L51.7874 446.029C49.7772 442.601 47.8442 439.129 45.9891 435.615L44.2205 436.549ZM58.5734 460.602C59.3161 461.71 60.0672 462.812 60.8268 463.909L62.471 462.77C61.7171 461.682 60.9716 460.588 60.2346 459.488L58.5734 460.602ZM65.4863 470.422C67.8623 473.639 70.3138 476.804 72.8402 479.915L74.3928 478.654C71.8857 475.567 69.4529 472.426 67.095 469.234L65.4863 470.422ZM83.3138 492.03C84.2155 493.01 85.1253 493.984 86.0431 494.951L87.494 493.575C86.5832 492.615 85.6804 491.648 84.7857 490.676L83.3138 492.03ZM91.6469 500.677C94.484 503.487 97.3926 506.237 100.372 508.925L101.712 507.44C98.7555 504.773 95.8694 502.044 93.0543 499.256L91.6469 500.677ZM181.926 558.734C183.172 559.207 184.421 559.671 185.671 560.124L186.353 558.243C185.112 557.794 183.873 557.334 182.637 556.864L181.926 558.734ZM193.251 562.737C197.066 563.986 200.899 565.142 204.748 566.206L205.281 564.278C201.462 563.223 197.659 562.075 193.873 560.836L193.251 562.737ZM220.304 569.992C221.609 570.266 222.915 570.531 224.222 570.786L224.604 568.823C223.307 568.57 222.011 568.307 220.716 568.035L220.304 569.992ZM232.11 572.195C236.066 572.839 240.032 573.39 244.004 573.85L244.234 571.863C240.292 571.407 236.357 570.86 232.431 570.221L232.11 572.195ZM259.956 575.205C261.288 575.278 262.621 575.34 263.953 575.392L264.032 573.394C262.709 573.342 261.387 573.28 260.065 573.208L259.956 575.205ZM271.959 575.585C275.962 575.62 279.966 575.566 283.965 575.422L283.893 573.423C279.924 573.566 275.95 573.62 271.977 573.585L271.959 575.585ZM299.94 574.371C301.269 574.244 302.596 574.107 303.923 573.96L303.703 571.972C302.386 572.118 301.068 572.254 299.75 572.38L299.94 574.371ZM311.865 572.965C315.826 572.409 319.777 571.766 323.716 571.037L323.352 569.071C319.442 569.794 315.519 570.432 311.587 570.984L311.865 572.965ZM339.366 567.67C340.662 567.352 341.956 567.025 343.249 566.688L342.744 564.753C341.461 565.087 340.176 565.412 338.889 565.728L339.366 567.67ZM350.962 564.56C354.8 563.441 358.618 562.24 362.414 560.957L361.774 559.062C358.004 560.337 354.213 561.529 350.402 562.639L350.962 564.56ZM377.428 555.406C378.666 554.909 379.902 554.402 381.135 553.886L380.363 552.041C379.139 552.553 377.912 553.056 376.682 553.551L377.428 555.406ZM388.471 550.697C392.112 549.053 395.725 547.331 399.307 545.531L398.41 543.744C394.852 545.531 391.264 547.242 387.648 548.874L388.471 550.697ZM413.406 537.953C414.563 537.29 415.717 536.617 416.867 535.937L415.848 534.216C414.706 534.891 413.56 535.559 412.411 536.219L413.406 537.953ZM423.694 531.768C427.073 529.641 430.416 527.44 433.72 525.166L432.587 523.518C429.305 525.777 425.985 527.963 422.628 530.076L423.694 531.768ZM446.652 515.738C447.708 514.923 448.76 514.101 449.806 513.27L448.563 511.704C447.524 512.528 446.479 513.345 445.43 514.155L446.652 515.738ZM456.006 508.214C459.065 505.65 462.08 503.017 465.05 500.316L463.704 498.836C460.755 501.519 457.76 504.134 454.721 506.681L456.006 508.214ZM476.593 489.235C477.529 488.287 478.46 487.332 479.385 486.369L477.943 484.983C477.024 485.939 476.099 486.888 475.17 487.83L476.593 489.235ZM484.856 480.524C487.544 477.574 490.181 474.561 492.767 471.486L491.236 470.199C488.668 473.254 486.047 476.247 483.378 479.177L484.856 480.524ZM502.734 458.973C503.535 457.912 504.329 456.844 505.118 455.769L503.505 454.586C502.722 455.653 501.933 456.714 501.138 457.768L502.734 458.973ZM509.776 449.244C512.046 445.974 514.262 442.646 516.421 439.261L514.735 438.186C512.59 441.549 510.389 444.855 508.133 448.104L509.776 449.244ZM538.12 430.758C538.447 430.173 538.772 429.587 539.095 429L537.343 428.036C537.022 428.619 536.699 429.201 536.374 429.783C536.049 430.364 535.722 430.945 535.394 431.523L537.133 432.51C537.464 431.928 537.792 431.344 538.12 430.758ZM542.867 421.933C544.714 418.363 546.483 414.774 548.175 411.167L546.364 410.317C544.683 413.901 542.926 417.467 541.091 421.014L542.867 421.933ZM554.588 396.507C555.09 395.272 555.583 394.036 556.068 392.798L554.205 392.069C553.724 393.299 553.234 394.527 552.736 395.753L554.588 396.507ZM558.889 385.301C560.253 381.526 561.537 377.737 562.741 373.937L560.834 373.333C559.638 377.107 558.363 380.871 557.008 384.622L558.889 385.301ZM567.169 358.556C567.504 357.263 567.83 355.97 568.147 354.676L566.205 354.2C565.89 355.486 565.566 356.77 565.233 358.054L567.169 358.556ZM569.947 346.881C570.797 342.961 571.565 339.035 572.253 335.106L570.283 334.761C569.6 338.664 568.837 342.563 567.992 346.458L569.947 346.881ZM574.585 319.268C574.744 317.941 574.893 316.614 575.034 315.288L573.045 315.077C572.906 316.395 572.757 317.712 572.599 319.03L574.585 319.268ZM575.769 307.325C576.084 303.327 576.316 299.332 576.467 295.343L574.468 295.267C574.319 299.229 574.088 303.197 573.776 307.169L575.769 307.325ZM576.632 279.335C576.61 277.999 576.578 276.664 576.537 275.331L574.538 275.392C574.579 276.717 574.61 278.043 574.633 279.37L576.632 279.335ZM576.181 267.342C575.948 263.338 575.632 259.347 575.234 255.371L573.244 255.57C573.639 259.519 573.953 263.482 574.185 267.458L576.181 267.342ZM573.199 239.496C572.993 238.176 572.777 236.858 572.552 235.542L570.581 235.879C570.804 237.186 571.018 238.494 571.224 239.805L573.199 239.496ZM571.094 227.676C570.308 223.746 569.441 219.837 568.492 215.954L566.549 216.428C567.491 220.284 568.353 224.165 569.133 228.068L571.094 227.676ZM564.253 200.519C563.863 199.242 563.464 197.968 563.056 196.697L561.152 197.309C561.557 198.57 561.953 199.835 562.341 201.103L564.253 200.519ZM560.499 189.114C559.165 185.336 557.75 181.591 556.255 177.881L554.4 178.628C555.884 182.311 557.289 186.03 558.613 189.78L560.499 189.114ZM549.843 163.213C549.273 162.006 548.694 160.804 548.106 159.606L546.311 160.487C546.894 161.676 547.469 162.869 548.035 164.067L549.843 163.213ZM544.474 152.472C542.605 148.931 540.658 145.433 538.632 141.98L536.907 142.992C538.917 146.419 540.85 149.891 542.705 153.405L544.474 152.472ZM530.121 128.419C529.378 127.311 528.627 126.209 527.868 125.112L526.223 126.251C526.977 127.339 527.723 128.433 528.46 129.532L530.121 128.419ZM523.208 118.599C520.832 115.382 518.381 112.217 515.854 109.106L514.302 110.367C516.809 113.454 519.242 116.595 521.599 119.787L523.208 118.599ZM505.381 96.9908C504.479 96.0107 503.569 95.0369 502.651 94.0696L501.2 95.4462C502.111 96.406 503.014 97.3723 503.909 98.3449L505.381 96.9908ZM497.048 88.3443C494.21 85.5342 491.302 82.7838 488.322 80.0959L486.983 81.5808C489.939 84.2479 492.825 86.9769 495.64 89.7653L497.048 88.3443ZM406.768 30.2867C405.522 29.8133 404.274 29.3501 403.023 28.8971L402.342 30.7775C403.583 31.227 404.821 31.6866 406.058 32.1563L406.768 30.2867ZM395.444 26.2841C391.628 25.0349 387.795 23.8787 383.946 22.8147L383.413 24.7423C387.232 25.7981 391.036 26.9454 394.821 28.1848L395.444 26.2841ZM368.39 19.0292C367.086 18.7543 365.78 18.4896 364.472 18.2351L364.09 20.1983C365.387 20.4508 366.683 20.7134 367.978 20.9863L368.39 19.0292ZM356.585 16.8259C352.628 16.1819 348.662 15.6304 344.691 15.1706L344.461 17.1573C348.402 17.6136 352.337 18.1609 356.263 18.8L356.585 16.8259ZM328.738 13.8156C327.406 13.7432 326.073 13.6809 324.741 13.6287L324.663 15.6272C325.985 15.679 327.307 15.7408 328.63 15.8127L328.738 13.8156ZM316.736 13.4362C312.732 13.4003 308.729 13.4548 304.729 13.5988L304.801 15.5975C308.771 15.4546 312.744 15.4005 316.718 15.4361L316.736 13.4362ZM288.754 14.6501C287.426 14.7771 286.098 14.9139 284.771 15.0605L284.991 17.0484C286.308 16.9029 287.626 16.7671 288.945 16.641L288.754 14.6501ZM276.83 16.0562C272.868 16.6119 268.917 17.2547 264.979 17.9836L265.343 19.9502C269.252 19.2265 273.175 18.5884 277.108 18.0368L276.83 16.0562ZM249.328 21.3504C248.032 21.6685 246.738 21.996 245.446 22.3329L245.95 24.2682C247.233 23.9338 248.518 23.6086 249.805 23.2928L249.328 21.3504ZM237.733 24.4613C233.895 25.5794 230.076 26.7805 226.28 28.0638L226.921 29.9585C230.69 28.6842 234.481 27.4916 238.292 26.3814L237.733 24.4613ZM211.266 33.6145C210.028 34.1123 208.792 34.6189 207.56 35.1345L208.332 36.9796C209.556 36.4676 210.783 35.9645 212.012 35.4702L211.266 33.6145ZM200.224 38.3238C196.582 39.9676 192.969 41.6898 189.387 43.4897L190.285 45.2768C193.842 43.4893 197.431 41.779 201.047 40.1467L200.224 38.3238ZM175.289 51.0673C174.131 51.7312 172.977 52.4035 171.828 53.0842L172.846 54.8053C173.988 54.1293 175.134 53.4616 176.284 52.8023L175.289 51.0673ZM165.001 57.2525C161.621 59.3798 158.278 61.5809 154.974 63.8548L156.108 65.5024C159.389 63.2439 162.71 61.0579 166.066 58.945L165.001 57.2525ZM142.042 73.2827C140.986 74.0974 139.935 74.92 138.888 75.7503L140.131 77.3171C141.171 76.4924 142.215 75.6754 143.264 74.8662L142.042 73.2827ZM132.688 80.8069C129.629 83.3712 126.614 86.0041 123.645 88.7049L124.991 90.1844C127.94 87.5017 130.935 84.8865 133.973 82.3395L132.688 80.8069ZM112.102 99.7856C111.166 100.734 110.235 101.689 109.31 102.651L110.751 104.037C111.67 103.081 112.595 102.132 113.525 101.191L112.102 99.7856ZM103.838 108.497C101.151 111.447 98.5129 114.459 95.9273 117.535L97.4582 118.822C100.027 115.767 102.647 112.774 105.317 109.844L103.838 108.497ZM85.9601 130.048C85.1596 131.109 84.3651 132.177 83.5766 133.251L85.189 134.435C85.9723 133.367 86.7616 132.307 87.5568 131.252L85.9601 130.048ZM78.9184 139.777C76.6481 143.047 74.4323 146.375 72.2733 149.76L73.9594 150.835C76.1045 147.472 78.3059 144.166 80.5613 140.917L78.9184 139.777ZM64.0178 163.473C63.6873 164.055 63.3584 164.639 63.0312 165.225C62.7039 165.81 62.3789 166.396 62.056 166.983L63.808 167.947C64.1289 167.364 64.4519 166.782 64.777 166.2C65.1021 165.619 65.4289 165.038 65.7572 164.46L64.0178 163.473ZM58.2836 174.049C56.4367 177.619 54.6677 181.209 52.9761 184.816L54.7868 185.665C56.4675 182.082 58.225 178.515 60.0599 174.968L58.2836 174.049ZM46.5626 199.476C46.0606 200.711 45.5674 201.947 45.0829 203.185L46.9453 203.914C47.4266 202.684 47.9166 201.456 48.4153 200.23L46.5626 199.476ZM42.2621 210.682C40.898 214.457 39.6141 218.246 38.4098 222.046L40.3163 222.65C41.5126 218.876 42.788 215.112 44.1431 211.361L42.2621 210.682ZM33.9815 237.427C33.6465 238.719 33.3204 240.013 33.0034 241.307L34.9459 241.783C35.2609 240.497 35.5847 239.213 35.9175 237.929L33.9815 237.427ZM31.2038 249.101C30.3538 253.022 29.5855 256.948 28.8982 260.877L30.8682 261.222C31.5509 257.319 32.3141 253.42 33.1584 249.525L31.2038 249.101ZM26.5659 276.715C26.407 278.042 26.2573 279.368 26.1167 280.695L28.1055 280.906C28.2452 279.588 28.3939 278.271 28.5517 276.953L26.5659 276.715ZM25.3814 288.657C25.0668 292.656 24.8347 296.651 24.6842 300.64L26.6828 300.716C26.8322 296.753 27.0628 292.785 27.3753 288.814L25.3814 288.657ZM24.5183 316.647C24.541 317.983 24.5729 319.318 24.614 320.652L26.613 320.591C26.5723 319.266 26.5406 317.94 26.518 316.613L24.5183 316.647ZM24.9696 328.641C25.2031 332.644 25.519 336.636 25.9167 340.611L27.9067 340.412C27.5118 336.464 27.198 332.5 26.9662 328.524L24.9696 328.641ZM27.9513 356.487C28.1579 357.807 28.3737 359.125 28.5986 360.44L30.57 360.104C30.3467 358.797 30.1324 357.488 29.9272 356.178L27.9513 356.487ZM30.0567 368.307C30.8425 372.237 31.7102 376.146 32.6589 380.029L34.6018 379.554C33.6597 375.698 32.7982 371.817 32.0179 367.914L30.0567 368.307ZM36.8974 395.464C37.2876 396.741 37.6868 398.015 38.095 399.286L39.9992 398.674C39.5939 397.412 39.1976 396.148 38.8102 394.879L36.8974 395.464ZM40.6515 406.869C41.9858 410.646 43.4006 414.392 44.8954 418.102L46.7504 417.355C45.2666 413.671 43.862 409.953 42.5374 406.203L40.6515 406.869ZM51.3076 432.77C51.8779 433.977 52.4569 435.179 53.0447 436.377L54.8403 435.496C54.2567 434.307 53.682 433.113 53.1159 431.916L51.3076 432.77ZM56.6769 443.511C58.5458 447.051 60.4933 450.55 62.5186 454.003L64.2437 452.991C62.2336 449.564 60.3006 446.091 58.4455 442.577L56.6769 443.511ZM71.0298 467.564C71.7725 468.672 72.5236 469.774 73.2832 470.871L74.9274 469.732C74.1735 468.644 73.428 467.55 72.691 466.45L71.0298 467.564ZM77.9426 477.384C80.3186 480.601 82.7702 483.766 85.2966 486.877L86.8492 485.616C84.3421 482.529 81.9093 479.388 79.5514 476.196L77.9426 477.384ZM95.7702 498.992C96.6719 499.972 97.5817 500.946 98.4995 501.913L99.9503 500.537C99.0396 499.577 98.1368 498.611 97.2421 497.638L95.7702 498.992ZM104.103 507.639C106.94 510.449 109.849 513.199 112.828 515.887L114.168 514.402C111.212 511.735 108.326 509.006 105.511 506.218L104.103 507.639ZM194.383 565.696C195.629 566.17 196.877 566.633 198.128 567.086L198.809 565.205C197.568 564.756 196.329 564.296 195.093 563.827L194.383 565.696ZM205.707 569.699C209.523 570.948 213.356 572.104 217.204 573.168L217.737 571.24C213.919 570.185 210.115 569.037 206.329 567.798L205.707 569.699ZM232.76 576.954C234.065 577.229 235.371 577.493 236.679 577.748L237.061 575.785C235.763 575.532 234.467 575.269 233.173 574.997L232.76 576.954ZM244.566 579.157C248.523 579.801 252.488 580.352 256.46 580.812L256.69 578.826C252.749 578.369 248.814 577.822 244.887 577.183L244.566 579.157ZM272.413 582.167C273.745 582.24 275.077 582.302 276.41 582.354L276.488 580.356C275.166 580.304 273.843 580.242 272.521 580.17L272.413 582.167ZM284.415 582.547C288.419 582.583 292.422 582.528 296.422 582.384L296.35 580.385C292.38 580.528 288.407 580.582 284.433 580.547L284.415 582.547ZM312.397 581.333C313.725 581.206 315.053 581.069 316.379 580.922L316.16 578.934C314.843 579.08 313.525 579.216 312.206 579.342L312.397 581.333ZM324.321 579.927C328.283 579.371 332.234 578.728 336.172 577.999L335.808 576.033C331.898 576.756 327.976 577.394 324.043 577.946L324.321 579.927ZM351.822 574.632C353.119 574.314 354.413 573.987 355.705 573.65L355.201 571.715C353.918 572.049 352.633 572.374 351.346 572.69L351.822 574.632ZM363.418 571.522C367.256 570.403 371.074 569.202 374.871 567.919L374.23 566.024C370.461 567.299 366.669 568.491 362.859 569.601L363.418 571.522ZM389.884 562.368C391.123 561.871 392.358 561.364 393.591 560.848L392.819 559.003C391.595 559.515 390.368 560.018 389.138 560.513L389.884 562.368ZM400.927 557.659C404.568 556.015 408.182 554.293 411.764 552.493L410.866 550.706C407.308 552.493 403.72 554.204 400.104 555.836L400.927 557.659ZM425.862 544.916C427.02 544.252 428.173 543.579 429.323 542.899L428.304 541.178C427.162 541.854 426.017 542.521 424.867 543.181L425.862 544.916ZM436.15 538.73C439.53 536.603 442.873 534.402 446.177 532.128L445.043 530.48C441.761 532.739 438.441 534.925 435.085 537.038L436.15 538.73ZM459.109 522.7C460.165 521.885 461.216 521.063 462.263 520.233L461.02 518.666C459.98 519.49 458.936 520.307 457.887 521.117L459.109 522.7ZM468.463 515.176C471.521 512.612 474.537 509.979 477.506 507.278L476.16 505.798C473.211 508.481 470.216 511.096 467.178 513.643L468.463 515.176ZM489.049 496.197C489.985 495.249 490.916 494.294 491.841 493.331L490.399 491.945C489.48 492.901 488.556 493.85 487.626 494.792L489.049 496.197ZM497.312 487.486C500 484.536 502.638 481.523 505.223 478.448L503.693 477.161C501.124 480.216 498.504 483.209 495.834 486.139L497.312 487.486ZM515.191 465.935C515.991 464.874 516.786 463.806 517.574 462.731L515.962 461.548C515.178 462.615 514.389 463.676 513.594 464.73L515.191 465.935ZM522.232 456.206C524.503 452.936 526.718 449.608 528.878 446.223L527.191 445.148C525.046 448.511 522.845 451.817 520.589 455.066L522.232 456.206ZM550.576 437.72C550.903 437.135 551.228 436.549 551.551 435.962L549.799 434.998C549.478 435.581 549.155 436.163 548.83 436.745C548.505 437.326 548.178 437.907 547.85 438.485L549.589 439.472C549.92 438.89 550.249 438.306 550.576 437.72ZM555.324 428.895C557.17 425.325 558.939 421.736 560.631 418.129L558.82 417.279C557.14 420.863 555.382 424.43 553.547 427.976L555.324 428.895ZM567.045 403.469C567.547 402.234 568.04 400.998 568.524 399.76L566.662 399.031C566.181 400.261 565.691 401.489 565.192 402.715L567.045 403.469ZM571.345 392.263C572.709 388.488 573.993 384.699 575.197 380.899L573.291 380.295C572.094 384.069 570.819 387.833 569.464 391.584L571.345 392.263ZM579.626 365.518C579.961 364.226 580.287 362.932 580.604 361.638L578.661 361.162C578.346 362.448 578.022 363.732 577.69 365.016L579.626 365.518ZM582.403 353.844C583.253 349.923 584.022 345.997 584.709 342.068L582.739 341.723C582.056 345.626 581.293 349.525 580.449 353.42L582.403 353.844ZM587.041 326.23C587.2 324.903 587.35 323.577 587.49 322.25L585.502 322.039C585.362 323.357 585.213 324.674 585.055 325.992L587.041 326.23ZM588.226 314.288C588.54 310.289 588.772 306.294 588.923 302.305L586.924 302.229C586.775 306.191 586.544 310.159 586.232 314.131L588.226 314.288ZM589.089 286.298C589.066 284.961 589.034 283.626 588.993 282.293L586.994 282.354C587.035 283.679 587.067 285.005 587.089 286.332L589.089 286.298ZM588.638 274.304C588.404 270.301 588.088 266.309 587.69 262.333L585.7 262.532C586.095 266.481 586.409 270.445 586.641 274.42L588.638 274.304ZM585.656 246.458C585.449 245.138 585.233 243.82 585.009 242.504L583.037 242.841C583.26 244.148 583.475 245.456 583.68 246.767L585.656 246.458ZM583.55 234.638C582.765 230.708 581.897 226.799 580.948 222.916L579.005 223.39C579.947 227.247 580.809 231.127 581.589 235.03L583.55 234.638ZM576.71 207.481C576.32 206.204 575.92 204.93 575.512 203.659L573.608 204.271C574.013 205.532 574.41 206.797 574.797 208.066L576.71 207.481ZM572.956 196.076C571.621 192.298 570.207 188.553 568.712 184.843L566.857 185.59C568.341 189.273 569.745 192.992 571.07 196.742L572.956 196.076ZM562.3 170.175C561.729 168.968 561.15 167.766 560.562 166.568L558.767 167.449C559.35 168.638 559.925 169.831 560.491 171.029L562.3 170.175ZM556.93 159.434C555.061 155.894 553.114 152.395 551.089 148.942L549.363 149.954C551.374 153.381 553.307 156.853 555.162 160.367L556.93 159.434ZM542.577 135.381C541.835 134.273 541.084 133.171 540.324 132.074L538.68 133.213C539.434 134.301 540.179 135.395 540.916 136.494L542.577 135.381ZM535.665 125.561C533.289 122.344 530.837 119.179 528.311 116.068L526.758 117.329C529.265 120.416 531.698 123.557 534.056 126.749L535.665 125.561ZM517.837 103.953C516.935 102.973 516.025 101.999 515.108 101.032L513.657 102.408C514.568 103.368 515.47 104.334 516.365 105.307L517.837 103.953ZM509.504 95.3064C506.667 92.4962 503.758 89.7458 500.779 87.0579L499.439 88.5429C502.395 91.2099 505.281 93.939 508.096 96.7273L509.504 95.3064ZM419.225 37.2488C417.978 36.7754 416.73 36.3121 415.479 35.8591L414.798 37.7395C416.039 38.189 417.278 38.6487 418.514 39.1184L419.225 37.2488ZM407.9 33.2462C404.085 31.997 400.251 30.8408 396.403 29.7767L395.87 31.7044C399.688 32.7602 403.492 33.9074 407.278 35.1469L407.9 33.2462ZM380.847 25.9913C379.542 25.7163 378.236 25.4516 376.929 25.1972L376.546 27.1603C377.844 27.4128 379.14 27.6755 380.434 27.9483L380.847 25.9913ZM369.041 23.788C365.084 23.144 361.119 22.5925 357.147 22.1326L356.917 24.1194C360.858 24.5757 364.794 25.1229 368.72 25.762L369.041 23.788ZM341.194 20.7777C339.862 20.7053 338.53 20.643 337.197 20.5908L337.119 22.5893C338.442 22.6411 339.764 22.7029 341.086 22.7747L341.194 20.7777ZM329.192 20.3983C325.188 20.3624 321.185 20.4169 317.185 20.5609L317.257 22.5596C321.227 22.4167 325.2 22.3626 329.174 22.3982L329.192 20.3983ZM301.211 21.6121C299.882 21.7391 298.555 21.876 297.228 22.0225L297.448 24.0104C298.764 23.8649 300.082 23.7291 301.401 23.603L301.211 21.6121ZM289.286 23.0182C285.325 23.5739 281.373 24.2167 277.435 24.9457L277.799 26.9123C281.709 26.1886 285.631 25.5505 289.564 24.9988L289.286 23.0182ZM261.785 28.3125C260.489 28.6306 259.194 28.9581 257.902 29.295L258.406 31.2303C259.69 30.8958 260.975 30.5707 262.262 30.2548L261.785 28.3125ZM250.189 31.4233C246.351 32.5414 242.533 33.7426 238.736 35.0258L239.377 36.9205C243.146 35.6463 246.938 34.4537 250.748 33.3435L250.189 31.4233ZM223.723 40.5765C222.484 41.0743 221.249 41.581 220.016 42.0965L220.788 43.9416C222.012 43.4297 223.239 42.9265 224.469 42.4323L223.723 40.5765ZM212.68 45.2859C209.039 46.9296 205.426 48.6519 201.843 50.4517L202.741 52.2388C206.299 50.4514 209.887 48.7411 213.503 47.1088L212.68 45.2859ZM187.745 58.0294C186.588 58.6933 185.434 59.3656 184.284 60.0462L185.303 61.7673C186.445 61.0913 187.591 60.4237 188.74 59.7643L187.745 58.0294ZM177.457 64.2145C174.078 66.3419 170.735 68.543 167.43 70.8169L168.564 72.4644C171.846 70.206 175.166 68.0199 178.523 65.9071L177.457 64.2145ZM154.499 80.2448C153.443 81.0595 152.391 81.882 151.344 82.7124L152.587 84.2792C153.627 83.4545 154.671 82.6375 155.72 81.8283L154.499 80.2448ZM145.145 87.7689C142.086 90.3332 139.07 92.9661 136.101 95.667L137.447 97.1464C140.396 94.4638 143.391 91.8486 146.429 89.3016L145.145 87.7689ZM124.558 106.748C123.622 107.696 122.691 108.651 121.766 109.613L123.208 110.999C124.127 110.043 125.051 109.094 125.981 108.153L124.558 106.748ZM116.295 115.459C113.607 118.409 110.969 121.421 108.384 124.497L109.915 125.784C112.483 122.729 115.103 119.736 117.773 116.806L116.295 115.459ZM98.4164 137.01C97.616 138.071 96.8215 139.139 96.033 140.213L97.6454 141.397C98.4287 140.329 99.218 139.269 100.013 138.214L98.4164 137.01ZM91.3748 146.739C89.1045 150.009 86.8887 153.337 84.7296 156.722L86.4158 157.797C88.5609 154.434 90.7622 151.128 93.0177 147.879L91.3748 146.739ZM76.4741 170.435C76.1437 171.017 75.8148 171.601 75.4876 172.187C75.1603 172.772 74.8353 173.358 74.5123 173.945L76.2644 174.909C76.5853 174.326 76.9083 173.744 77.2334 173.162C77.5585 172.581 77.8853 172 78.2136 171.422L76.4741 170.435ZM70.74 181.012C68.8931 184.581 67.1241 188.171 65.4325 191.778L67.2432 192.627C68.9238 189.044 70.6814 185.477 72.5163 181.931L70.74 181.012ZM59.019 206.438C58.517 207.673 58.0238 208.909 57.5393 210.147L59.4017 210.876C59.883 209.646 60.373 208.418 60.8717 207.192L59.019 206.438ZM54.7184 217.644C53.3544 221.419 52.0705 225.208 50.8662 229.008L52.7727 229.612C53.969 225.838 55.2444 222.074 56.5995 218.323L54.7184 217.644ZM46.4379 244.389C46.1028 245.681 45.7768 246.975 45.4598 248.269L47.4023 248.745C47.7172 247.459 48.0411 246.175 48.3739 244.891L46.4379 244.389ZM43.6602 256.063C42.8102 259.984 42.0419 263.91 41.3545 267.839L43.3246 268.184C44.0073 264.281 44.7705 260.382 45.6148 256.487L43.6602 256.063ZM39.0223 283.677C38.8634 285.004 38.7137 286.33 38.5731 287.657L40.5619 287.868C40.7016 286.55 40.8503 285.233 41.0081 283.915L39.0223 283.677ZM37.8378 295.619C37.5232 299.618 37.2911 303.613 37.1406 307.602L39.1392 307.678C39.2886 303.715 39.5192 299.748 39.8317 295.776L37.8378 295.619ZM36.9747 323.609C36.9974 324.945 37.0293 326.28 37.0703 327.614L39.0694 327.553C39.0287 326.228 38.997 324.902 38.9744 323.575L36.9747 323.609ZM37.426 335.603C37.6594 339.606 37.9754 343.598 38.3731 347.574L40.3631 347.374C39.9682 343.426 39.6544 339.462 39.4226 335.486L37.426 335.603ZM40.4077 363.449C40.6143 364.769 40.8301 366.087 41.055 367.403L43.0264 367.066C42.8031 365.759 42.5888 364.451 42.3836 363.14L40.4077 363.449ZM42.5131 375.269C43.2989 379.199 44.1665 383.108 45.1153 386.991L47.0582 386.516C46.1161 382.66 45.2546 378.779 44.4743 374.877L42.5131 375.269ZM49.3538 402.426C49.744 403.703 50.1432 404.977 50.5514 406.248L52.4555 405.636C52.0503 404.374 51.654 403.11 51.2666 401.841L49.3538 402.426ZM53.1079 413.831C54.4422 417.609 55.857 421.354 57.3517 425.064L59.2068 424.317C57.723 420.634 56.3184 416.915 54.9937 413.165L53.1079 413.831ZM63.764 439.732C64.3343 440.939 64.9133 442.141 65.5011 443.339L67.2966 442.458C66.7131 441.269 66.1384 440.076 65.5723 438.878L63.764 439.732ZM69.1332 450.473C71.0021 454.013 72.9496 457.512 74.975 460.965L76.7001 459.953C74.69 456.526 72.757 453.053 70.9019 449.54L69.1332 450.473ZM83.4862 474.526C84.2288 475.634 84.98 476.736 85.7396 477.833L87.3838 476.694C86.6299 475.606 85.8844 474.512 85.1474 473.413L83.4862 474.526ZM90.399 484.346C92.775 487.563 95.2266 490.728 97.753 493.839L99.3055 492.578C96.7985 489.491 94.3656 486.35 92.0078 483.158L90.399 484.346ZM108.227 505.954C109.128 506.934 110.038 507.908 110.956 508.875L112.407 507.499C111.496 506.539 110.593 505.573 109.698 504.6L108.227 505.954ZM116.56 514.601C119.397 517.411 122.305 520.161 125.285 522.849L126.625 521.364C123.668 518.697 120.782 515.968 117.967 513.18L116.56 514.601ZM206.839 572.658C208.085 573.132 209.334 573.595 210.584 574.048L211.265 572.167C210.024 571.718 208.786 571.258 207.549 570.789L206.839 572.658ZM218.164 576.661C221.979 577.91 225.812 579.066 229.661 580.13L230.194 578.203C226.375 577.147 222.572 576 218.786 574.76L218.164 576.661ZM245.217 583.916C246.522 584.191 247.828 584.455 249.135 584.71L249.517 582.747C248.22 582.494 246.924 582.231 245.629 581.959L245.217 583.916ZM257.022 586.119C260.979 586.763 264.945 587.314 268.916 587.774L269.146 585.788C265.205 585.331 261.27 584.784 257.344 584.145L257.022 586.119ZM284.869 589.129C286.201 589.202 287.534 589.264 288.866 589.316L288.944 587.318C287.622 587.266 286.3 587.204 284.978 587.132L284.869 589.129ZM296.871 589.509C300.875 589.545 304.878 589.49 308.878 589.346L308.806 587.347C304.836 587.49 300.863 587.544 296.889 587.509L296.871 589.509ZM324.853 588.295C326.181 588.168 327.509 588.031 328.836 587.884L328.616 585.897C327.299 586.042 325.981 586.178 324.663 586.304L324.853 588.295ZM336.777 586.889C340.739 586.333 344.69 585.69 348.629 584.961L348.265 582.995C344.355 583.718 340.432 584.356 336.5 584.908L336.777 586.889ZM364.279 581.594C365.575 581.276 366.869 580.949 368.162 580.612L367.657 578.677C366.374 579.011 365.089 579.336 363.802 579.652L364.279 581.594ZM375.874 578.484C379.712 577.366 383.531 576.164 387.327 574.881L386.687 572.986C382.917 574.261 379.126 575.453 375.315 576.563L375.874 578.484ZM402.341 569.33C403.579 568.833 404.815 568.326 406.047 567.81L405.276 565.965C404.052 566.477 402.825 566.98 401.595 567.475L402.341 569.33ZM413.383 564.621C417.025 562.977 420.638 561.255 424.22 559.455L423.322 557.668C419.765 559.456 416.177 561.166 412.561 562.798L413.383 564.621ZM438.318 551.878C439.476 551.214 440.63 550.541 441.78 549.861L440.761 548.14C439.619 548.816 438.473 549.483 437.323 550.143L438.318 551.878ZM448.607 545.692C451.986 543.565 455.329 541.364 458.633 539.09L457.499 537.443C454.218 539.701 450.897 541.887 447.541 544L448.607 545.692ZM471.565 529.662C472.621 528.847 473.672 528.025 474.719 527.195L473.476 525.628C472.436 526.452 471.392 527.269 470.343 528.079L471.565 529.662ZM480.919 522.138C483.978 519.574 486.993 516.941 489.962 514.24L488.616 512.761C485.667 515.443 482.672 518.058 479.634 520.605L480.919 522.138ZM501.506 503.159C502.442 502.211 503.372 501.256 504.298 500.294L502.856 498.907C501.937 499.864 501.012 500.812 500.082 501.754L501.506 503.159ZM509.769 494.448C512.456 491.498 515.094 488.486 517.68 485.41L516.149 484.123C513.58 487.178 510.96 490.171 508.291 493.101L509.769 494.448ZM527.647 472.897C528.448 471.836 529.242 470.768 530.031 469.694L528.418 468.51C527.635 469.578 526.846 470.638 526.05 471.692L527.647 472.897ZM534.689 463.168C536.959 459.898 539.175 456.57 541.334 453.185L539.648 452.11C537.503 455.473 535.301 458.779 533.046 462.028L534.689 463.168ZM431.681 44.2108C430.435 43.7374 429.186 43.2742 427.936 42.8212L427.255 44.7016C428.495 45.1511 429.734 45.6107 430.971 46.0804L431.681 44.2108ZM420.356 40.2082C416.541 38.959 412.708 37.8028 408.859 36.7388L408.326 38.6665C412.145 39.7223 415.948 40.8695 419.734 42.109L420.356 40.2082ZM393.303 32.9533C391.998 32.6784 390.692 32.4137 389.385 32.1592L389.003 34.1224C390.3 34.3749 391.596 34.6375 392.891 34.9104L393.303 32.9533ZM381.498 30.7501C377.541 30.106 373.575 29.5545 369.603 29.0947L369.373 31.0814C373.315 31.5377 377.25 32.085 381.176 32.7241L381.498 30.7501ZM353.651 27.7397C352.319 27.6673 350.986 27.605 349.654 27.5529L349.575 29.5513C350.898 29.6031 352.22 29.6649 353.542 29.7368L353.651 27.7397ZM341.648 27.3603C337.645 27.3244 333.641 27.3789 329.642 27.5229L329.714 29.5216C333.684 29.3787 337.657 29.3246 341.631 29.3603L341.648 27.3603ZM313.667 28.5742C312.339 28.7012 311.011 28.838 309.684 28.9846L309.904 30.9725C311.221 30.827 312.539 30.6912 313.857 30.5651L313.667 28.5742ZM301.742 29.9803C297.781 30.536 293.83 31.1788 289.891 31.9077L290.255 33.8743C294.165 33.1506 298.088 32.5125 302.02 31.9609L301.742 29.9803ZM274.241 35.2745C272.945 35.5926 271.651 35.9201 270.358 36.257L270.863 38.1923C272.146 37.8579 273.431 37.5327 274.718 37.2169L274.241 35.2745ZM262.645 38.3854C258.808 39.5035 254.989 40.7046 251.193 41.9879L251.833 43.8826C255.603 42.6084 259.394 41.4157 263.205 40.3056L262.645 38.3854ZM236.179 47.5386C234.941 48.0364 233.705 48.543 232.473 49.0586L233.244 50.9037C234.468 50.3917 235.695 49.8886 236.925 49.3943L236.179 47.5386ZM225.137 52.2479C221.495 53.8917 217.882 55.6139 214.3 57.4138L215.198 59.2009C218.755 57.4135 222.343 55.7031 225.959 54.0708L225.137 52.2479ZM200.202 64.9914C199.044 65.6553 197.89 66.3276 196.74 67.0083L197.759 68.7294C198.901 68.0534 200.047 67.3857 201.197 66.7264L200.202 64.9914ZM189.913 71.1766C186.534 73.3039 183.191 75.505 179.887 77.779L181.021 79.4265C184.302 77.168 187.623 74.982 190.979 72.8691L189.913 71.1766ZM166.955 87.2068C165.899 88.0215 164.848 88.8441 163.801 89.6744L165.044 91.2413C166.083 90.4165 167.128 89.5995 168.177 88.7903L166.955 87.2068ZM157.601 94.731C154.542 97.2953 151.527 99.9282 148.558 102.629L149.903 104.108C152.853 101.426 155.848 98.8106 158.886 96.2637L157.601 94.731ZM137.014 113.71C136.078 114.658 135.148 115.613 134.222 116.575L135.664 117.962C136.583 117.005 137.508 116.057 138.438 115.115L137.014 113.71ZM128.751 122.421C126.063 125.371 123.426 128.383 120.84 131.459L122.371 132.746C124.939 129.691 127.56 126.698 130.229 123.768L128.751 122.421ZM110.873 143.972C110.072 145.033 109.278 146.101 108.489 147.175L110.102 148.359C110.885 147.291 111.674 146.231 112.47 145.177L110.873 143.972ZM103.831 153.701C101.561 156.971 99.3451 160.299 97.186 163.684L98.8722 164.759C101.017 161.396 103.219 158.09 105.474 154.841L103.831 153.701ZM88.9305 177.397C88.6 177.979 88.2712 178.563 87.9439 179.149C87.6167 179.734 87.2916 180.32 86.9687 180.907L88.7208 181.871C89.0416 181.288 89.3646 180.706 89.6898 180.124C90.0149 179.543 90.3416 178.962 90.67 178.384L88.9305 177.397ZM83.1964 187.974C81.3495 191.544 79.5805 195.133 77.8888 198.74L79.6996 199.59C81.3802 196.006 83.1378 192.439 84.9727 188.893L83.1964 187.974ZM71.4754 213.4C70.9734 214.635 70.4802 215.871 69.9957 217.109L71.8581 217.838C72.3394 216.608 72.8294 215.38 73.328 214.154L71.4754 213.4ZM67.1748 224.606C65.8108 228.381 64.5269 232.17 63.3226 235.97L65.2291 236.574C66.4254 232.8 67.7008 229.036 69.0558 225.285L67.1748 224.606ZM58.8942 251.351C58.5592 252.643 58.2332 253.937 57.9161 255.231L59.8587 255.707C60.1736 254.421 60.4975 253.137 60.8302 251.853L58.8942 251.351ZM56.1166 263.025C55.2666 266.946 54.4982 270.872 53.8109 274.801L55.781 275.146C56.4637 271.243 57.2269 267.344 58.0712 263.449L56.1166 263.025ZM51.4786 290.639C51.3198 291.966 51.1701 293.292 51.0295 294.619L53.0183 294.83C53.158 293.512 53.3067 292.195 53.4645 290.877L51.4786 290.639ZM50.2942 302.581C49.9796 306.58 49.7474 310.575 49.597 314.564L51.5956 314.64C51.745 310.678 51.9756 306.71 52.288 302.738L50.2942 302.581ZM49.4311 330.571C49.4538 331.908 49.4857 333.243 49.5267 334.576L51.5258 334.515C51.485 333.19 51.4534 331.864 51.4308 330.537L49.4311 330.571ZM49.8824 342.565C50.1158 346.568 50.4317 350.56 50.8294 354.536L52.8195 354.337C52.4246 350.388 52.1108 346.425 51.879 342.449L49.8824 342.565ZM52.864 370.411C53.0707 371.731 53.2865 373.049 53.5114 374.365L55.4828 374.028C55.2595 372.721 55.0452 371.413 54.84 370.102L52.864 370.411ZM54.9695 382.231C55.7553 386.161 56.6229 390.07 57.5717 393.953L59.5146 393.479C58.5725 389.622 57.711 385.742 56.9307 381.839L54.9695 382.231ZM61.8102 409.388C62.2004 410.665 62.5996 411.939 63.0078 413.21L64.9119 412.598C64.5067 411.337 64.1103 410.072 63.7229 408.803L61.8102 409.388ZM65.5643 420.793C66.8985 424.571 68.3134 428.316 69.8081 432.026L71.6632 431.279C70.1794 427.596 68.7748 423.877 67.4501 420.127L65.5643 420.793ZM76.2204 446.694C76.7906 447.901 77.3697 449.103 77.9575 450.301L79.753 449.42C79.1695 448.231 78.5948 447.038 78.0287 445.84L76.2204 446.694ZM81.5896 457.435C83.4585 460.975 85.406 464.474 87.4314 467.927L89.1565 466.915C87.1463 463.488 85.2133 460.016 83.3583 456.502L81.5896 457.435ZM95.9426 481.488C96.6852 482.596 97.4364 483.698 98.196 484.795L99.8401 483.656C99.0863 482.568 98.3408 481.474 97.6038 480.375L95.9426 481.488ZM102.855 491.308C105.231 494.525 107.683 497.69 110.209 500.801L111.762 499.54C109.255 496.453 106.822 493.312 104.464 490.12L102.855 491.308ZM120.683 512.916C121.585 513.896 122.494 514.87 123.412 515.837L124.863 514.461C123.952 513.501 123.05 512.535 122.155 511.562L120.683 512.916ZM129.016 521.563C131.853 524.373 134.762 527.123 137.741 529.811L139.081 528.326C136.125 525.659 133.239 522.93 130.423 520.142L129.016 521.563Z" stroke="url(#paint0_linear_625_100)" stroke-width="2" stroke-dasharray="4 8 12 16"/>
<defs>
<linearGradient id="paint0_linear_625_100" x1="440.728" y1="47.2335" x2="160.423" y2="548.749" gradientUnits="userSpaceOnUse">
<stop stop-color="#EEF5FC"/>
<stop offset="1" stop-color="#15118F"/>
</linearGradient>
</defs>
</svg>
