<svg width="64" height="64" viewBox="0 0 64 64" fill="none" xmlns="http://www.w3.org/2000/svg">
<path d="M31.9999 5.33331C17.2799 5.33331 5.33325 17.28 5.33325 32C5.33325 46.72 17.2799 58.6666 31.9999 58.6666C46.7199 58.6666 58.6666 46.72 58.6666 32C58.6666 17.28 46.7199 5.33331 31.9999 5.33331ZM31.9999 53.3333C20.2399 53.3333 10.6666 43.76 10.6666 32C10.6666 20.24 20.2399 10.6666 31.9999 10.6666C43.7599 10.6666 53.3333 20.24 53.3333 32C53.3333 43.76 43.7599 53.3333 31.9999 53.3333ZM34.3733 29.6C29.6266 28.0266 27.3333 27.04 27.3333 24.5333C27.3333 21.8133 30.2933 20.8266 32.1599 20.8266C35.6533 20.8266 36.9333 23.4666 37.2266 24.4L41.4399 22.6133C41.0399 21.44 39.2533 17.52 34.3466 16.6666V13.3333H29.6799V16.6933C22.7466 18.1866 22.6933 24.2933 22.6933 24.5866C22.6933 30.64 28.6933 32.3466 31.6266 33.4133C35.8399 34.9066 37.7066 36.2666 37.7066 38.8266C37.7066 41.84 34.9066 43.12 32.4266 43.12C27.5733 43.12 26.1866 38.1333 26.0266 37.5466L21.5999 39.3333C23.2799 45.1733 27.6799 46.7466 29.6533 47.2266V50.6666H34.3199V47.36C35.7066 47.12 42.3733 45.7866 42.3733 38.7733C42.3999 35.0666 40.7733 31.8133 34.3733 29.6Z" fill="#64108C"/>
</svg>
