<svg width="315" height="77" viewBox="0 0 315 77" fill="none" xmlns="http://www.w3.org/2000/svg">
<g clip-path="url(#clip0_475_1026)">
<path d="M3.591 44V12.608H26.631V15.776H7.047V26.48H23.847V29.648H7.047V40.832H26.631V44H3.591ZM32.0441 44V12.608H35.5001V26.48H55.8521V12.608H59.3081V44H55.8521V29.648H35.5001V44H32.0441ZM65.7473 44V12.608H79.6193C87.0113 12.608 90.2753 16.736 90.2753 22.304C90.2753 27.488 87.4913 30.944 82.3553 31.904L91.4273 44H87.2513L78.7553 32.096H69.2033V44H65.7473ZM69.2033 28.928H79.6673C84.8993 28.928 86.7712 26.048 86.7712 22.304C86.7712 18.56 84.8993 15.776 79.6673 15.776H69.2033V28.928ZM119.388 44V30.224L106.476 12.608H110.652L121.164 27.344L131.628 12.608H135.708L122.844 30.176V44H119.388ZM146.582 44.624C139.094 44.624 133.814 39.344 133.814 32.144C133.814 24.944 139.094 19.664 146.582 19.664C154.07 19.664 159.35 24.944 159.35 32.144C159.35 39.344 154.07 44.624 146.582 44.624ZM146.582 41.648C152.246 41.648 156.086 37.616 156.086 32.144C156.086 26.672 152.246 22.64 146.582 22.64C140.918 22.64 137.078 26.672 137.078 32.144C137.078 37.616 140.918 41.648 146.582 41.648ZM174.798 44.624C167.79 44.624 163.086 40.544 163.086 32.672V20.288H166.302V32.672C166.302 38.48 169.662 41.648 174.798 41.648C179.934 41.648 183.294 38.48 183.294 32.672V20.288H186.51V32.672C186.51 40.544 181.806 44.624 174.798 44.624ZM191.211 44V29.792C191.211 22.976 195.291 19.664 201.195 19.664C207.099 19.664 211.131 22.976 211.131 29.84V30.128H207.963V29.792C207.963 24.848 205.227 22.64 201.195 22.64C197.115 22.64 194.427 24.848 194.427 29.792V44H191.211ZM224.977 44.624C219.025 44.624 214.465 40.88 214.465 33.44V12.608H217.921V33.44C217.921 38.768 221.041 41.456 225.217 41.456C229.441 41.456 232.513 38.624 232.513 33.44V12.608H235.969V33.44C235.969 38.624 239.041 41.456 243.265 41.456C247.441 41.456 250.561 38.768 250.561 33.44V12.608H254.017V33.44C254.017 40.88 249.457 44.624 243.505 44.624C239.185 44.624 235.825 42.56 234.241 38.768C232.657 42.56 229.297 44.624 224.977 44.624ZM270.18 44.624C263.508 44.624 257.892 39.872 257.892 32.288C257.892 24.896 263.172 19.664 270.66 19.664C278.148 19.664 283.38 24.8 283.38 32.288V44H280.404V38.144C278.724 42.368 274.788 44.624 270.18 44.624ZM270.66 41.648C276.324 41.648 280.164 37.616 280.164 32.144C280.164 26.672 276.324 22.64 270.66 22.64C264.996 22.64 261.156 26.672 261.156 32.144C261.156 37.616 264.996 41.648 270.66 41.648ZM299.67 54.752C294.294 54.752 289.83 52.256 288.342 47.12H291.558C292.806 50.336 295.734 51.92 299.67 51.92C304.758 51.92 308.31 49.424 308.31 43.232V39.248C306.63 42.656 303.462 44.48 299.334 44.48C292.998 44.48 288.102 40.64 288.102 32.528V20.288H291.318V32.528C291.318 38.384 294.678 41.504 299.814 41.504C304.902 41.504 308.31 38.336 308.31 32.528V20.288H311.526V43.136C311.526 51.392 306.294 54.752 299.67 54.752Z" fill="#257CC7"/>
<path d="M121.564 73V62.536H125.948C128.588 62.536 129.756 63.992 129.756 65.976C129.756 67.96 128.588 69.432 125.948 69.432H123.196V73H121.564ZM123.196 67.928H125.98C127.548 67.928 128.108 67.096 128.108 65.976C128.108 64.872 127.548 64.04 125.98 64.04H123.196V67.928ZM134.806 73.208C132.31 73.208 130.55 71.448 130.55 69.048C130.55 66.648 132.31 64.888 134.806 64.888C137.302 64.888 139.062 66.648 139.062 69.048C139.062 71.448 137.302 73.208 134.806 73.208ZM134.806 71.8C136.438 71.8 137.526 70.648 137.526 69.048C137.526 67.448 136.438 66.296 134.806 66.296C133.174 66.296 132.086 67.448 132.086 69.048C132.086 70.648 133.174 71.8 134.806 71.8ZM143.571 73.208C141.715 73.208 140.307 72.088 140.307 69.672V65.096H141.827V69.672C141.827 71.144 142.611 71.8 143.715 71.8C144.787 71.8 145.603 71.112 145.603 69.672V65.096H147.123V69.672C147.123 71.112 147.923 71.8 148.995 71.8C150.099 71.8 150.883 71.144 150.883 69.672V65.096H152.403V69.672C152.403 72.088 150.995 73.208 149.139 73.208C147.907 73.208 146.899 72.664 146.355 71.64C145.811 72.664 144.787 73.208 143.571 73.208ZM157.9 73.208C155.404 73.208 153.644 71.448 153.644 69.048C153.644 66.648 155.404 64.888 157.9 64.888C160.396 64.888 162.124 66.648 162.124 69.048V69.608H155.244C155.468 71.016 156.524 71.8 157.9 71.8C158.924 71.8 159.644 71.48 160.108 70.792H161.788C161.18 72.264 159.74 73.208 157.9 73.208ZM155.292 68.248H160.524C160.22 66.984 159.18 66.296 157.9 66.296C156.588 66.296 155.596 67 155.292 68.248ZM163.37 73V68.344C163.37 66.008 164.746 64.888 166.778 64.888C168.794 64.888 170.17 66.008 170.17 68.36V68.44H168.666V68.344C168.666 66.888 167.898 66.296 166.778 66.296C165.642 66.296 164.89 66.888 164.89 68.344V73H163.37ZM175.15 73.208C172.654 73.208 170.894 71.448 170.894 69.048C170.894 66.648 172.654 64.888 175.15 64.888C177.646 64.888 179.374 66.648 179.374 69.048V69.608H172.494C172.718 71.016 173.774 71.8 175.15 71.8C176.174 71.8 176.894 71.48 177.358 70.792H179.038C178.43 72.264 176.99 73.208 175.15 73.208ZM172.542 68.248H177.774C177.47 66.984 176.43 66.296 175.15 66.296C173.838 66.296 172.846 67 172.542 68.248ZM184.572 73.208C182.06 73.208 180.3 71.48 180.3 69C180.3 66.376 182.252 64.888 184.316 64.888C185.596 64.888 186.684 65.464 187.26 66.488V61.64H188.78V68.984C188.78 71.56 187.02 73.208 184.572 73.208ZM184.556 71.8C186.172 71.8 187.26 70.648 187.26 69.048C187.26 67.448 186.172 66.296 184.556 66.296C182.924 66.296 181.836 67.448 181.836 69.048C181.836 70.648 182.924 71.8 184.556 71.8ZM198.812 73.208C196.364 73.208 194.604 71.56 194.604 68.984V61.64H196.124V66.488C196.7 65.464 197.788 64.888 199.068 64.888C201.132 64.888 203.084 66.376 203.084 69C203.084 71.48 201.324 73.208 198.812 73.208ZM198.828 71.8C200.46 71.8 201.548 70.648 201.548 69.048C201.548 67.448 200.46 66.296 198.828 66.296C197.212 66.296 196.124 67.448 196.124 69.048C196.124 70.648 197.212 71.8 198.828 71.8ZM208.211 76.584C206.387 76.584 204.867 75.736 204.403 73.944H205.923C206.291 74.84 207.075 75.256 208.211 75.256C209.683 75.256 210.627 74.552 210.627 72.76V71.624C210.131 72.6 209.171 73.144 207.987 73.144C206.019 73.144 204.339 71.912 204.339 69.144V65.096H205.859V69.144C205.859 70.856 206.803 71.72 208.243 71.72C209.651 71.72 210.627 70.824 210.627 69.144V65.096H212.147V72.728C212.147 75.48 210.403 76.584 208.211 76.584ZM218.246 73V66.84C218.246 64.072 219.846 62.328 222.774 62.328C225.734 62.328 227.35 64.072 227.35 66.84V73H225.718V69.688H219.83V73H218.246ZM219.83 68.184H225.718V66.84C225.718 64.952 224.726 63.832 222.774 63.832C220.822 63.832 219.83 64.952 219.83 66.84V68.184ZM232.916 73.208C230.404 73.208 228.644 71.48 228.644 69C228.644 66.376 230.596 64.888 232.66 64.888C233.94 64.888 235.028 65.464 235.604 66.488V61.64H237.124V68.984C237.124 71.56 235.364 73.208 232.916 73.208ZM232.9 71.8C234.516 71.8 235.604 70.648 235.604 69.048C235.604 67.448 234.516 66.296 232.9 66.296C231.268 66.296 230.18 67.448 230.18 69.048C230.18 70.648 231.268 71.8 232.9 71.8ZM242.394 73.208C240.33 73.208 238.378 71.72 238.378 69.112C238.378 66.632 240.138 64.888 242.65 64.888C245.13 64.888 246.858 66.584 246.858 69.112V73H245.466V71.272C244.938 72.552 243.77 73.208 242.394 73.208ZM242.634 71.8C244.266 71.8 245.354 70.648 245.354 69.048C245.354 67.448 244.266 66.296 242.634 66.296C241.002 66.296 239.914 67.448 239.914 69.048C239.914 70.648 241.002 71.8 242.634 71.8ZM248.432 76.376V69.112C248.432 66.536 250.192 64.888 252.64 64.888C255.152 64.888 256.912 66.616 256.912 69.096C256.912 71.72 254.96 73.208 252.896 73.208C251.616 73.208 250.528 72.632 249.952 71.608V76.376H248.432ZM252.656 71.8C254.288 71.8 255.376 70.648 255.376 69.048C255.376 67.448 254.288 66.296 252.656 66.296C251.04 66.296 249.952 67.448 249.952 69.048C249.952 70.648 251.04 71.8 252.656 71.8ZM261.335 73.208C259.447 73.208 258.167 72.152 258.167 70.008V62.296H259.687V65.096H264.039V66.488H259.687V70.008C259.687 71.256 260.343 71.8 261.335 71.8C262.327 71.8 262.999 71.272 262.999 70.008V69.832H264.503V70.008C264.503 72.152 263.223 73.208 261.335 73.208ZM269.457 73.208C267.393 73.208 265.441 71.72 265.441 69.112C265.441 66.632 267.201 64.888 269.713 64.888C272.193 64.888 273.921 66.584 273.921 69.112V73H272.529V71.272C272.001 72.552 270.833 73.208 269.457 73.208ZM269.697 71.8C271.329 71.8 272.417 70.648 272.417 69.048C272.417 67.448 271.329 66.296 269.697 66.296C268.065 66.296 266.977 67.448 266.977 69.048C266.977 70.648 268.065 71.8 269.697 71.8ZM275.495 73V68.424C275.495 66.008 276.903 64.888 278.759 64.888C279.975 64.888 280.999 65.432 281.543 66.456C282.087 65.432 283.095 64.888 284.327 64.888C286.183 64.888 287.591 66.008 287.591 68.424V73H286.071V68.424C286.071 66.952 285.287 66.296 284.183 66.296C283.111 66.296 282.311 66.984 282.311 68.424V73H280.791V68.424C280.791 66.984 279.975 66.296 278.903 66.296C277.799 66.296 277.015 66.952 277.015 68.424V73H275.495ZM293.087 73.208C290.591 73.208 288.831 71.448 288.831 69.048C288.831 66.648 290.591 64.888 293.087 64.888C295.583 64.888 297.311 66.648 297.311 69.048V69.608H290.431C290.655 71.016 291.711 71.8 293.087 71.8C294.111 71.8 294.831 71.48 295.295 70.792H296.975C296.367 72.264 294.927 73.208 293.087 73.208ZM290.479 68.248H295.711C295.407 66.984 294.367 66.296 293.087 66.296C291.775 66.296 290.783 67 290.479 68.248ZM302.509 73.208C299.997 73.208 298.237 71.48 298.237 69C298.237 66.376 300.189 64.888 302.253 64.888C303.533 64.888 304.621 65.464 305.197 66.488V61.64H306.717V68.984C306.717 71.56 304.957 73.208 302.509 73.208ZM302.493 71.8C304.109 71.8 305.197 70.648 305.197 69.048C305.197 67.448 304.109 66.296 302.493 66.296C300.861 66.296 299.773 67.448 299.773 69.048C299.773 70.648 300.861 71.8 302.493 71.8Z" fill="#A3A3A3"/>
<line x1="100" y1="12" x2="100" y2="44" stroke="#257CC7" stroke-opacity="0.5" stroke-width="2"/>
</g>
<defs>
<clipPath id="clip0_475_1026">
<rect width="315" height="77" fill="white"/>
</clipPath>
</defs>
</svg>
