<svg width="64" height="64" viewBox="0 0 64 64" fill="none" xmlns="http://www.w3.org/2000/svg">
<path d="M53.0747 22.896C52.9483 22.6066 52.7713 22.342 52.5521 22.1146L36.5521 6.11465C36.3247 5.8954 36.0602 5.71841 35.7707 5.59198C35.6907 5.55465 35.6054 5.53331 35.5201 5.50398C35.297 5.42805 35.0647 5.38231 34.8294 5.36798C34.7734 5.36265 34.7227 5.33331 34.6667 5.33331H16.0001C13.0587 5.33331 10.6667 7.72531 10.6667 10.6666V53.3333C10.6667 56.2746 13.0587 58.6666 16.0001 58.6666H48.0001C50.9414 58.6666 53.3334 56.2746 53.3334 53.3333V24C53.3334 23.944 53.3041 23.8933 53.2987 23.8346C53.2857 23.5992 53.2399 23.3668 53.1627 23.144C53.1361 23.0586 53.1121 22.976 53.0747 22.896ZM44.2294 21.3333H37.3334V14.4373L44.2294 21.3333ZM16.0001 53.3333V10.6666H32.0001V24C32.0001 24.7072 32.281 25.3855 32.7811 25.8856C33.2812 26.3857 33.9595 26.6666 34.6667 26.6666H48.0001L48.0054 53.3333H16.0001Z" fill="#64108C"/>
<path d="M21.3334 32H42.6667V37.3333H21.3334V32ZM21.3334 42.6666H42.6667V48H21.3334V42.6666ZM21.3334 21.3333H26.6667V26.6666H21.3334V21.3333Z" fill="#64108C"/>
</svg>
