<svg width="64" height="64" viewBox="0 0 64 64" fill="none" xmlns="http://www.w3.org/2000/svg">
<path d="M29.3333 18.6666H34.6666V24H29.3333V18.6666ZM29.3333 29.3333H34.6666V45.3333H29.3333V29.3333ZM31.9999 5.33331C17.2799 5.33331 5.33325 17.28 5.33325 32C5.33325 46.72 17.2799 58.6666 31.9999 58.6666C46.7199 58.6666 58.6666 46.72 58.6666 32C58.6666 17.28 46.7199 5.33331 31.9999 5.33331ZM31.9999 53.3333C20.2399 53.3333 10.6666 43.76 10.6666 32C10.6666 20.24 20.2399 10.6666 31.9999 10.6666C43.7599 10.6666 53.3333 20.24 53.3333 32C53.3333 43.76 43.7599 53.3333 31.9999 53.3333Z" fill="#64108C"/>
</svg>
