<svg width="64" height="64" viewBox="0 0 64 64" fill="none" xmlns="http://www.w3.org/2000/svg">
<path d="M41.5093 29.3893C44.2953 27.7351 46.604 25.3857 48.2092 22.5712C49.8144 19.7566 50.6612 16.5735 50.6666 13.3333V10.6667H53.3333V5.33334H10.6666V10.6667H13.3333V13.3333C13.3387 16.5735 14.1855 19.7566 15.7907 22.5712C17.3959 25.3857 19.7046 27.7351 22.4906 29.3893C23.4346 29.944 24 30.8427 24 31.7893V32.2107C24 33.1547 23.4346 34.0507 22.4906 34.6107C19.7046 36.2649 17.3959 38.6143 15.7907 41.4289C14.1855 44.2434 13.3387 47.4266 13.3333 50.6667V53.3333H10.6666V58.6667H53.3333V53.3333H50.6666V50.6667C50.6616 47.4272 49.8152 44.2445 48.2104 41.4304C46.6056 38.6163 44.2975 36.2673 41.512 34.6133C40.5653 34.0533 40 33.1547 40 32.2107V31.7893C40 30.8427 40.5653 29.944 41.5093 29.3893ZM38.8026 39.2053C40.7903 40.3869 42.4371 42.0643 43.5819 44.0734C44.7266 46.0825 45.3301 48.3543 45.3333 50.6667V53.3333H18.6666V50.6667C18.6701 48.3537 19.274 46.0813 20.4192 44.0718C21.5645 42.0623 23.2118 40.3845 25.2 39.2027C27.7893 37.6747 29.3333 35.0587 29.3333 32.2107V31.7893C29.3333 28.9387 27.7866 26.32 25.1973 24.7947C23.2096 23.6131 21.5628 21.9357 20.418 19.9266C19.2733 17.9176 18.6698 15.6457 18.6666 13.3333V10.6667H45.3333V13.3333C45.3333 18.0267 42.832 22.416 38.8026 24.7947C36.2133 26.32 34.6666 28.9387 34.6666 31.7893V32.2107C34.6666 35.0587 36.2106 37.6747 38.8026 39.2053Z" fill="#64108C"/>
</svg>
