<svg width="58" height="64" viewBox="0 0 58 64" fill="none" xmlns="http://www.w3.org/2000/svg">
<path d="M29 45.3333L31.3509 40V26.288C35.3967 25.096 38.4035 20.9546 38.4035 16C38.4035 10.1173 34.186 5.33331 29 5.33331C23.8139 5.33331 19.5965 10.1173 19.5965 16C19.5965 20.9546 22.6032 25.096 26.6491 26.288V40L29 45.3333ZM24.2982 16C24.2982 13.0586 26.407 10.6666 29 10.6666C31.593 10.6666 33.7017 13.0586 33.7017 16C33.7017 18.9413 31.593 21.3333 29 21.3333C26.407 21.3333 24.2982 18.9413 24.2982 16Z" fill="#64108C"/>
<path d="M39.0312 28.168L37.7782 33.3093C43.8693 35.2187 47.807 38.8907 47.807 42.6667C47.807 47.712 40.0844 53.3333 29 53.3333C17.9156 53.3333 10.193 47.712 10.193 42.6667C10.193 38.8907 14.1307 35.2187 20.2242 33.3067L18.9711 28.1653C10.6561 30.7733 5.49121 36.328 5.49121 42.6667C5.49121 51.6373 15.8186 58.6667 29 58.6667C42.1813 58.6667 52.5088 51.6373 52.5088 42.6667C52.5088 36.328 47.3439 30.7733 39.0312 28.168Z" fill="#64108C"/>
</svg>
