<svg width="64" height="64" viewBox="0 0 64 64" fill="none" xmlns="http://www.w3.org/2000/svg">
<path d="M50.6667 10.6666H39.52C38.4 7.57331 35.4667 5.33331 32 5.33331C28.5333 5.33331 25.6 7.57331 24.48 10.6666H13.3333C10.4 10.6666 8 13.0666 8 16V53.3333C8 56.2666 10.4 58.6666 13.3333 58.6666H50.6667C53.6 58.6666 56 56.2666 56 53.3333V16C56 13.0666 53.6 10.6666 50.6667 10.6666ZM32 9.99998C33.0933 9.99998 34 10.9066 34 12C34 13.0933 33.0933 14 32 14C30.9067 14 30 13.0933 30 12C30 10.9066 30.9067 9.99998 32 9.99998ZM50.6667 53.3333H13.3333V16H50.6667V53.3333Z" fill="#64108C"/>
<path d="M40.2133 32.08L34.56 26.4266L18.6667 42.2933V48H24.2667L40.2133 32.08Z" fill="#64108C"/>
<path d="M44.9333 27.3866C45.4667 26.8533 45.4667 26.0266 44.9333 25.4933L41.1733 21.7333C40.64 21.2 39.8133 21.2 39.28 21.7333L36.4533 24.56L42.1067 30.2133L44.9333 27.3866Z" fill="#64108C"/>
</svg>
