<svg width="64" height="64" viewBox="0 0 64 64" fill="none" xmlns="http://www.w3.org/2000/svg">
<path d="M34.6667 21.3334C34.6667 15.44 29.8934 10.6667 24.0001 10.6667C18.1067 10.6667 13.3334 15.44 13.3334 21.3334C13.3334 27.2267 18.1067 32 24.0001 32C29.8934 32 34.6667 27.2267 34.6667 21.3334ZM29.3334 21.3334C29.3334 24.2667 26.9334 26.6667 24.0001 26.6667C21.0667 26.6667 18.6667 24.2667 18.6667 21.3334C18.6667 18.4 21.0667 16 24.0001 16C26.9334 16 29.3334 18.4 29.3334 21.3334ZM2.66675 48V53.3334H45.3334V48C45.3334 40.9067 31.1201 37.3334 24.0001 37.3334C16.8801 37.3334 2.66675 40.9067 2.66675 48ZM8.00008 48C8.53341 46.1067 16.8001 42.6667 24.0001 42.6667C31.1734 42.6667 39.4134 46.08 40.0001 48H8.00008ZM53.3334 40V32H61.3334V26.6667H53.3334V18.6667H48.0001V26.6667H40.0001V32H48.0001V40H53.3334Z" fill="#64108C"/>
</svg>
