<svg width="64" height="64" viewBox="0 0 64 64" fill="none" xmlns="http://www.w3.org/2000/svg">
<path d="M37.7867 13.3333L50.6667 26.2133V50.6667H13.3333V13.3333H37.7867ZM37.7867 8H13.3333C10.4 8 8 10.4 8 13.3333V50.6667C8 53.6 10.4 56 13.3333 56H50.6667C53.6 56 56 53.6 56 50.6667V26.2133C56 24.8 55.44 23.44 54.4267 22.4533L41.5467 9.57333C40.56 8.56 39.2 8 37.7867 8ZM18.6667 40H45.3333V45.3333H18.6667V40ZM18.6667 29.3333H45.3333V34.6667H18.6667V29.3333ZM18.6667 18.6667H37.3333V24H18.6667V18.6667Z" fill="#64108C"/>
</svg>
