<svg width="64" height="64" viewBox="0 0 64 64" fill="none" xmlns="http://www.w3.org/2000/svg">
<path d="M11.3333 16H16.6667V24H43.3333V16H48.6667V29.3333H54V16C54 13.0666 51.6 10.6666 48.6667 10.6666H37.52C36.4 7.57331 33.4667 5.33331 30 5.33331C26.5333 5.33331 23.6 7.57331 22.48 10.6666H11.3333C8.4 10.6666 6 13.0666 6 16V53.3333C6 56.2666 8.4 58.6666 11.3333 58.6666H27.3333V53.3333H11.3333V16ZM30 10.6666C31.4667 10.6666 32.6667 11.8666 32.6667 13.3333C32.6667 14.8 31.4667 16 30 16C28.5333 16 27.3333 14.8 27.3333 13.3333C27.3333 11.8666 28.5333 10.6666 30 10.6666Z" fill="#64108C"/>
<path d="M54 33.3333L39.36 48L31.3333 40L27.3333 44L39.36 56L58 37.3333L54 33.3333Z" fill="#64108C"/>
</svg>
