<svg width="64" height="64" viewBox="0 0 64 64" fill="none" xmlns="http://www.w3.org/2000/svg">
<path d="M51.8193 34.6133C51.9259 33.76 52.0059 32.9066 52.0059 32C52.0059 31.0933 51.9259 30.24 51.8193 29.3866L57.4459 24.9866C57.9526 24.5866 58.0859 23.8666 57.7659 23.28L52.4326 14.0533C52.1926 13.6266 51.7393 13.3866 51.2593 13.3866C51.0993 13.3866 50.9393 13.4133 50.8059 13.4666L44.1659 16.1333C42.7793 15.0666 41.2859 14.1866 39.6593 13.52L38.6459 6.45331C38.5659 5.81331 38.0059 5.33331 37.3393 5.33331H26.6726C26.0059 5.33331 25.4459 5.81331 25.3659 6.45331L24.3526 13.52C22.7259 14.1866 21.2326 15.0933 19.8459 16.1333L13.2059 13.4666C13.0459 13.4133 12.8859 13.3866 12.7259 13.3866C12.2726 13.3866 11.8193 13.6266 11.5793 14.0533L6.24592 23.28C5.89925 23.8666 6.05925 24.5866 6.56592 24.9866L12.1926 29.3866C12.0859 30.24 12.0059 31.12 12.0059 32C12.0059 32.88 12.0859 33.76 12.1926 34.6133L6.56592 39.0133C6.05925 39.4133 5.92592 40.1333 6.24592 40.72L11.5793 49.9466C11.8193 50.3733 12.2726 50.6133 12.7526 50.6133C12.9126 50.6133 13.0726 50.5866 13.2059 50.5333L19.8459 47.8666C21.2326 48.9333 22.7259 49.8133 24.3526 50.48L25.3659 57.5466C25.4459 58.1866 26.0059 58.6666 26.6726 58.6666H37.3393C38.0059 58.6666 38.5659 58.1866 38.6459 57.5466L39.6593 50.48C41.2859 49.8133 42.7793 48.9066 44.1659 47.8666L50.8059 50.5333C50.9659 50.5866 51.1259 50.6133 51.2859 50.6133C51.7393 50.6133 52.1926 50.3733 52.4326 49.9466L57.7659 40.72C58.0859 40.1333 57.9526 39.4133 57.4459 39.0133L51.8193 34.6133ZM46.5393 30.0533C46.6459 30.88 46.6726 31.44 46.6726 32C46.6726 32.56 46.6193 33.1466 46.5393 33.9466L46.1659 36.96L48.5393 38.8266L51.4193 41.0666L49.5526 44.2933L46.1659 42.9333L43.3926 41.8133L40.9926 43.6266C39.8459 44.48 38.7526 45.12 37.6593 45.5733L34.8326 46.72L34.4059 49.7333L33.8726 53.3333H30.1393L29.2059 46.72L26.3793 45.5733C25.2326 45.0933 24.1659 44.48 23.0993 43.68L20.6726 41.8133L17.8459 42.96L14.4593 44.32L12.5926 41.0933L15.4726 38.8533L17.8459 36.9866L17.4726 33.9733C17.3926 33.1466 17.3393 32.5333 17.3393 32C17.3393 31.4666 17.3926 30.8533 17.4726 30.0533L17.8459 27.04L15.4726 25.1733L12.5926 22.9333L14.4593 19.7066L17.8459 21.0666L20.6193 22.1866L23.0193 20.3733C24.1659 19.52 25.2593 18.88 26.3526 18.4266L29.1793 17.28L29.6059 14.2666L30.1393 10.6666H33.8459L34.7793 17.28L37.6059 18.4266C38.7526 18.9066 39.8193 19.52 40.8859 20.32L43.3126 22.1866L46.1393 21.04L49.5259 19.68L51.3926 22.9066L48.5393 25.1733L46.1659 27.04L46.5393 30.0533ZM32.0059 21.3333C26.1126 21.3333 21.3393 26.1066 21.3393 32C21.3393 37.8933 26.1126 42.6666 32.0059 42.6666C37.8993 42.6666 42.6726 37.8933 42.6726 32C42.6726 26.1066 37.8993 21.3333 32.0059 21.3333ZM32.0059 37.3333C29.0726 37.3333 26.6726 34.9333 26.6726 32C26.6726 29.0666 29.0726 26.6666 32.0059 26.6666C34.9393 26.6666 37.3393 29.0666 37.3393 32C37.3393 34.9333 34.9393 37.3333 32.0059 37.3333Z" fill="#64108C"/>
</svg>
