<svg width="64" height="64" viewBox="0 0 64 64" fill="none" xmlns="http://www.w3.org/2000/svg">
<path d="M48.7034 34.5067L40.0634 30.1867C43.5034 27.52 45.7167 23.36 45.7167 18.6667C45.7167 10.5867 39.1301 4 31.0501 4C22.9701 4 16.3834 10.5867 16.3834 18.6667C16.3834 24.3467 19.6367 29.28 24.3834 31.7067V40.4C18.6501 39.1733 18.9967 39.2267 18.3567 39.2267C16.9434 39.2267 15.6101 39.7867 14.5967 40.8L10.8634 44.5867L24.4367 58.16C25.5834 59.3333 27.1834 60 28.8367 60H45.6367C48.2501 60 50.4634 58.1333 50.8901 55.5467L53.0234 42.9867C53.6101 39.52 51.8767 36.1067 48.7034 34.5067ZM47.7701 42.1067L45.6367 54.6667H28.8367C28.5967 54.6667 28.3834 54.56 28.1967 54.4L18.3834 44.5867L29.7167 46.96V18.6667C29.7167 17.92 30.3034 17.3333 31.0501 17.3333C31.7967 17.3333 32.3834 17.92 32.3834 18.6667V34.6667H37.0767L46.3034 39.28C47.3701 39.8133 47.9567 40.96 47.7701 42.1067ZM21.7167 18.6667C21.7167 13.52 25.9034 9.33333 31.0501 9.33333C36.1967 9.33333 40.3834 13.52 40.3834 18.6667C40.3834 21.2 39.3701 23.4933 37.7167 25.1733V18.6667C37.7167 14.9867 34.7301 12 31.0501 12C27.3701 12 24.3834 14.9867 24.3834 18.6667V25.1733C22.7301 23.4933 21.7167 21.2 21.7167 18.6667Z" fill="#64108C"/>
</svg>
