<svg width="64" height="64" viewBox="0 0 64 64" fill="none" xmlns="http://www.w3.org/2000/svg">
<path d="M34.6666 50.6666V40H42.6666L31.9999 26.6666L21.3333 40H29.3333V50.6666H34.6666Z" fill="#64108C"/>
<path d="M18.6666 50.6666H23.9999V45.3333H18.6666C14.2559 45.3333 10.6666 41.744 10.6666 37.3333C10.6666 33.5893 13.8639 29.984 17.7946 29.2933L19.3439 29.0213L19.8559 27.5333C21.7306 22.064 26.3866 18.6666 31.9999 18.6666C39.3519 18.6666 45.3333 24.648 45.3333 32V34.6666H47.9999C50.9413 34.6666 53.3333 37.0586 53.3333 40C53.3333 42.9413 50.9413 45.3333 47.9999 45.3333H39.9999V50.6666H47.9999C53.8826 50.6666 58.6666 45.8826 58.6666 40C58.6625 37.6096 57.8576 35.2895 56.3804 33.4102C54.9033 31.5309 52.839 30.2007 50.5173 29.632C49.3519 20.4533 41.4933 13.3333 31.9999 13.3333C24.6506 13.3333 18.2666 17.6293 15.3519 24.4C9.62392 26.112 5.33325 31.52 5.33325 37.3333C5.33325 44.6853 11.3146 50.6666 18.6666 50.6666Z" fill="#64108C"/>
</svg>
