<svg width="51" height="66" viewBox="0 0 51 66" fill="none" xmlns="http://www.w3.org/2000/svg">
<path d="M20.8531 4.76744V32.9864C20.8531 33.2789 20.7369 33.5594 20.53 33.7663C20.3232 33.9731 20.0426 34.0893 19.7501 34.0893C19.4576 34.0893 19.1771 33.9731 18.9702 33.7663C18.7634 33.5594 18.6472 33.2789 18.6472 32.9864V4.76744L11.7069 11.7077C11.4999 11.9147 11.2192 12.031 10.9265 12.031C10.6339 12.031 10.3532 11.9147 10.1462 11.7077C9.93924 11.5008 9.82297 11.2201 9.82297 10.9274C9.82297 10.6347 9.93924 10.354 10.1462 10.1471L18.9698 1.32348C19.0722 1.22093 19.1939 1.13958 19.3278 1.08407C19.4617 1.02857 19.6052 1 19.7501 1C19.8951 1 20.0386 1.02857 20.1725 1.08407C20.3064 1.13958 20.428 1.22093 20.5305 1.32348L29.354 10.1471C29.561 10.354 29.6773 10.6347 29.6773 10.9274C29.6773 11.2201 29.561 11.5008 29.354 11.7077C29.1471 11.9147 28.8664 12.031 28.5737 12.031C28.281 12.031 28.0003 11.9147 27.7934 11.7077L20.8531 4.76744ZM38.5002 32.3742V24.1628C38.5002 23.2852 38.1516 22.4436 37.5311 21.8231C36.9106 21.2025 36.069 20.8539 35.1914 20.8539H30.7796C30.4871 20.8539 30.2065 20.9701 29.9997 21.177C29.7929 21.3838 29.6767 21.6644 29.6767 21.9569C29.6767 22.2494 29.7929 22.5299 29.9997 22.7368C30.2065 22.9436 30.4871 23.0598 30.7796 23.0598H35.1914C35.4839 23.0598 35.7645 23.176 35.9713 23.3829C36.1781 23.5897 36.2943 23.8703 36.2943 24.1628V49.7787L35.3927 48.4001C34.505 46.8952 33.0582 45.8024 31.3679 45.3601C29.6776 44.9178 27.881 45.1619 26.37 46.0392C24.859 46.9164 23.7562 48.3556 23.3023 50.0428C22.8483 51.73 23.08 53.5283 23.9468 55.0453C23.9562 55.0638 23.9673 55.0813 23.9799 55.0977L30.1178 64.4728C30.1949 64.5987 30.2965 64.7079 30.4166 64.7939C30.5367 64.8798 30.6728 64.9408 30.8169 64.9732C30.9609 65.0055 31.1101 65.0086 31.2554 64.9823C31.4007 64.956 31.5392 64.9007 31.6627 64.8198C31.7863 64.7389 31.8923 64.6341 31.9746 64.5114C32.0568 64.3888 32.1136 64.2509 32.1416 64.1059C32.1696 63.9609 32.1681 63.8117 32.1373 63.6673C32.1066 63.5229 32.0471 63.3861 31.9625 63.265L25.8411 53.9176C25.5531 53.4148 25.3669 52.8602 25.2932 52.2854C25.2195 51.7107 25.2597 51.1271 25.4115 50.5679C25.5633 50.0087 25.8238 49.4848 26.1781 49.0263C26.5324 48.5678 26.9735 48.1835 27.4763 47.8955C28.4917 47.3137 29.6966 47.1592 30.826 47.4658C31.3852 47.6176 31.909 47.8781 32.3675 48.2324C32.8261 48.5867 33.2103 49.0278 33.4984 49.5306L33.5315 49.583L36.4736 54.0802C36.6035 54.2794 36.7943 54.4312 37.0175 54.513C37.2407 54.5949 37.4844 54.6025 37.7122 54.5346C37.9401 54.4667 38.1399 54.327 38.2819 54.1363C38.4239 53.9456 38.5005 53.7141 38.5002 53.4764V35.0461C41.2279 37.0605 43.4465 39.685 44.9786 42.71C46.5107 45.7349 47.3138 49.0764 47.3238 52.4672V63.8689C47.3238 64.1614 47.44 64.442 47.6469 64.6488C47.8537 64.8557 48.1343 64.9719 48.4268 64.9719C48.7193 64.9719 48.9998 64.8557 49.2067 64.6488C49.4135 64.442 49.5297 64.1614 49.5297 63.8689V52.4672C49.518 48.4629 48.5022 44.5255 46.5754 41.0153C44.6485 37.505 41.8721 34.5341 38.5002 32.3742ZM8.72064 20.8539H4.30884C3.43128 20.8539 2.58967 21.2025 1.96914 21.8231C1.34861 22.4436 1 23.2852 1 24.1628V52.8394C1 53.132 1.1162 53.4125 1.32305 53.6193C1.52989 53.8262 1.81043 53.9424 2.10295 53.9424C2.39547 53.9424 2.67601 53.8262 2.88285 53.6193C3.08969 53.4125 3.2059 53.132 3.2059 52.8394V24.1628C3.2059 23.8703 3.3221 23.5897 3.52894 23.3829C3.73579 23.176 4.01632 23.0598 4.30884 23.0598H8.72064C9.01316 23.0598 9.2937 22.9436 9.50054 22.7368C9.70738 22.5299 9.82359 22.2494 9.82359 21.9569C9.82359 21.6644 9.70738 21.3838 9.50054 21.177C9.2937 20.9701 9.01316 20.8539 8.72064 20.8539Z" fill="#64108C" stroke="#64108C" stroke-width="2"/>
</svg>
